<?xml version="1.0" standalone="no"?>
<!DOCTYPE svg PUBLIC "-//W3C//DTD SVG 20010904//EN"
 "http://www.w3.org/TR/2001/REC-SVG-20010904/DTD/svg10.dtd">
<svg version="1.0" xmlns="http://www.w3.org/2000/svg"
 width="300.000000pt" height="272.000000pt" viewBox="0 0 300.000000 272.000000"
 preserveAspectRatio="xMidYMid meet">
<g transform="translate(0.000000,272.000000) scale(0.100000,-0.100000)"
fill="#BE8523" stroke="none">
<path d="M892 2518 c3 -24 23 -140 46 -258 22 -118 46 -259 53 -312 l12 -97
-39 -53 c-87 -118 -155 -241 -272 -498 -193 -422 -302 -736 -302 -872 0 -171
112 -211 242 -85 58 57 81 86 143 181 127 195 210 423 260 711 21 121 30 377
16 500 l-10 99 36 44 c19 24 46 48 60 53 13 5 26 16 29 24 9 21 42 19 56 -5 7
-11 16 -20 19 -20 12 0 31 82 21 92 -15 15 -113 -36 -170 -87 -28 -25 -52 -45
-55 -45 -2 0 -8 28 -11 61 -8 72 -80 469 -96 531 -19 73 -21 78 -32 78 -6 0
-8 -17 -6 -42z m127 -958 c1 -240 -35 -452 -114 -679 -87 -250 -252 -502 -367
-562 -48 -24 -70 -24 -94 2 -28 31 -25 167 5 274 79 280 354 898 498 1119 l58
88 7 -43 c3 -24 7 -114 7 -199z"/>
<path d="M1667 2344 c-3 -3 -2 -17 4 -31 5 -13 12 -76 16 -138 l6 -114 -34 9
c-29 9 -36 7 -51 -10 -16 -20 -17 -20 -20 17 -4 49 -32 58 -41 14 -6 -30 -56
-115 -64 -108 -2 2 6 26 17 52 19 45 20 50 4 64 -12 12 -18 13 -21 3 -19 -50
-56 -101 -91 -126 -49 -35 -63 -29 -32 13 11 17 18 35 15 41 -14 22 -36 7 -75
-50 -43 -63 -62 -73 -82 -40 -7 11 -16 20 -21 20 -4 0 -3 -9 3 -20 10 -19 4
-26 -23 -21 -5 1 -5 -4 -1 -10 4 -7 1 -10 -7 -7 -8 3 -20 -2 -28 -9 -10 -10
-16 -11 -21 -3 -10 16 -34 -16 -26 -35 9 -24 42 -18 80 16 33 29 36 29 59 14
23 -15 26 -14 55 16 26 27 33 29 52 19 17 -9 27 -8 56 9 28 17 38 19 54 9 26
-16 61 3 85 48 21 39 30 43 38 14 8 -29 34 -24 52 10 18 34 16 34 49 19 31
-15 53 0 58 39 l4 27 11 -26 c16 -36 41 -59 65 -59 19 0 20 4 15 44 -6 43 -6
43 32 55 39 11 69 36 57 48 -3 3 -32 1 -63 -6 -88 -20 -85 -18 -73 -40 13 -25
14 -59 1 -46 -6 6 -19 55 -31 110 -30 143 -56 196 -83 169z"/>
<path d="M1755 1976 c-39 -17 -115 -93 -156 -156 -34 -52 -49 -62 -49 -32 0
21 -18 42 -37 42 -23 0 -62 -74 -108 -205 -69 -197 -88 -233 -122 -237 l-28
-3 27 -18 c16 -11 35 -16 47 -12 22 7 58 87 116 260 20 61 44 123 54 138 l18
29 6 -36 c5 -29 -3 -54 -37 -128 -49 -105 -97 -241 -120 -339 -55 -238 -89
-647 -67 -803 18 -128 49 -143 80 -38 19 61 96 421 103 482 2 14 8 25 13 25 6
0 32 14 59 29 99 59 141 34 156 -92 10 -94 14 -102 41 -102 14 0 28 18 50 63
28 57 34 63 57 59 29 -6 52 19 52 55 0 19 5 23 29 23 17 0 33 5 36 10 9 15 35
12 30 -2 -7 -19 11 -42 28 -35 8 3 17 18 20 34 12 53 21 59 61 38 29 -16 37
-17 50 -6 9 8 16 20 16 28 0 13 2 13 17 2 9 -8 36 -15 61 -15 36 -1 45 2 50
18 3 11 10 17 19 14 7 -3 22 3 33 14 14 14 28 18 48 14 23 -5 32 -1 45 20 15
22 20 24 36 14 29 -18 62 -3 130 58 78 71 133 154 102 154 -5 0 -46 -38 -91
-85 -81 -83 -116 -107 -129 -88 -14 22 -41 22 -61 1 -11 -12 -20 -25 -20 -30
0 -16 -19 -7 -25 12 -10 30 -43 26 -47 -7 -3 -28 -28 -45 -28 -19 0 11 -9 16
-28 16 -34 0 -52 -16 -52 -47 0 -31 -18 -29 -30 2 -14 36 -37 31 -55 -11 -14
-34 -15 -35 -37 -20 -30 22 -55 20 -70 -4 -8 -12 -24 -20 -40 -20 -15 0 -29
-4 -33 -9 -3 -5 -18 -12 -34 -16 -22 -5 -35 -1 -50 14 -12 12 -28 21 -36 21
-22 0 -18 -27 5 -40 21 -11 26 -45 10 -70 -14 -22 -23 -5 -10 19 6 12 8 26 5
31 -11 18 -33 11 -40 -12 -4 -13 -21 -52 -38 -88 l-32 -65 -8 64 c-4 35 -14
76 -23 92 -20 39 -68 62 -116 56 l-38 -5 33 41 c148 187 258 471 274 709 5 79
3 106 -11 143 -25 64 -53 77 -111 51z m70 -26 c16 -26 22 -122 14 -200 -25
-225 -97 -409 -240 -620 -73 -107 -112 -153 -105 -125 19 72 66 535 66 646 0
50 5 62 51 130 63 91 103 135 149 159 40 22 56 24 65 10z m-316 -535 c-10
-115 -28 -274 -39 -352 -31 -209 -118 -623 -132 -623 -12 0 -21 176 -15 310
16 332 70 589 176 834 12 27 23 47 25 45 1 -2 -5 -98 -15 -214z"/>
</g>
</svg>
