<svg width="1214" height="1160" viewBox="0 0 1214 1160" fill="none" xmlns="http://www.w3.org/2000/svg">
<path d="M420 386.5L398 413L430.5 447.5L451.5 422L420 386.5Z" fill="url(#paint0_linear_1535_3)"/>
<path d="M789.5 385.5L811.5 412L779 446.5L758 421L789.5 385.5Z" fill="#7B4614"/>
<path d="M466.5 347.5L434 374L461 412L492.5 386L466.5 347.5Z" fill="url(#paint1_linear_1535_3)"/>
<path d="M743 346.5L775.5 373L748.5 411L717 385L743 346.5Z" fill="#94521B"/>
<path d="M504.5 379.505L480 339.505C498 327.338 547.8 302.905 603 302.505C658.2 302.105 710.333 327.005 729.5 339.505L704 379.505C691 370.005 652.6 351.305 603 352.505C553.4 353.705 516.667 371.005 504.5 379.505Z" fill="url(#paint2_linear_1535_3)"/>
<path fill-rule="evenodd" clip-rule="evenodd" d="M602.5 453.039L426 508.539V486.039C444 475.518 474.5 465.518 490.5 462.039C492.375 457.038 517.5 420.018 540 408.539C522 411.518 478 440.018 453 457.038C474 419.518 539 378.518 602.5 375.539C662 374.039 728 416.517 752.5 453.039C733 438.526 692.5 410.038 667.5 408.539C690.5 422.038 710.5 445.038 722 462.039L783 486.039V508.539L602.5 453.039ZM445.5 527.039L431.5 531.039L432 771.039L549 864.539V643.539L479 613.039V551.539L577.5 573.539V667.539L603.5 688.039L630.5 667.539V573.539L732 551.539V613.039L660 643.539V864.539L776 771.039V533.539L766 530.039V577.539H746V524.039L602.5 478.039L463 521.539V576.539H445.5V527.039ZM462.5 591H445.5L446 766.5L515 821V803L462.5 758V591ZM764.5 591.5H747.5V758.5L695 803.5V821.5L764 767L764.5 591.5Z" fill="url(#paint3_linear_1535_3)"/>
<path fill-rule="evenodd" clip-rule="evenodd" d="M602.5 453.039L426 508.539V486.039C444 475.518 474.5 465.518 490.5 462.039C492.375 457.038 517.5 420.018 540 408.539C522 411.518 478 440.018 453 457.038C474 419.518 539 378.518 602.5 375.539C662 374.039 728 416.517 752.5 453.039C733 438.526 692.5 410.038 667.5 408.539C690.5 422.038 710.5 445.038 722 462.039L783 486.039V508.539L602.5 453.039ZM445.5 527.039L431.5 531.039L432 771.039L549 864.539V643.539L479 613.039V551.539L577.5 573.539V667.539L603.5 688.039L630.5 667.539V573.539L732 551.539V613.039L660 643.539V864.539L776 771.039V533.539L766 530.039V577.539H746V524.039L602.5 478.039L463 521.539V576.539H445.5V527.039ZM462.5 591H445.5L446 766.5L515 821V803L462.5 758V591ZM764.5 591.5H747.5V758.5L695 803.5V821.5L764 767L764.5 591.5Z" fill="url(#paint4_radial_1535_3)"/>
<path d="M471 612L477 614L548.5 643V648.5L544.5 652.5L471 623V612Z" fill="url(#paint5_linear_1535_3)"/>
<path d="M471 647V638.5L526 673.5V816.5L548 831.5V865.5L516 840V819.5L514.5 677L471 647Z" fill="url(#paint6_linear_1535_3)"/>
<path d="M686 672L739.5 639.5V645L693 677V840L659.5 865.5V643L731 614L739.5 621.5L676.5 650.5L679.5 815L686 791.5V672Z" fill="url(#paint7_linear_1535_3)"/>
<path d="M480.5 527.5V516L603 478.5L729 519.5L731 527.5L603 488.5L480.5 527.5Z" fill="url(#paint8_linear_1535_3)"/>
<path d="M425 497V485.5L603 425.5L782.5 486V495.5L603 436.5L425 497Z" fill="url(#paint9_linear_1535_3)"/>
<path d="M603 376.5C519.4 380.102 467.833 432.667 452.5 458.5C473.167 434.333 532.2 386.2 603 387C673.8 387.8 722.333 422.83 743 444.997C723.5 418.497 672 378.997 603 376.5Z" fill="url(#paint10_linear_1535_3)"/>
<path d="M471 612L477 614L548.5 643V648.5L544.5 652.5L471 623V612Z" fill="url(#paint11_linear_1535_3)" fill-opacity="0.44"/>
<path d="M471 647V638.5L526 673.5V816.5L548 831.5V865.5L516 840V819.5L514.5 677L471 647Z" fill="url(#paint12_linear_1535_3)" fill-opacity="0.44"/>
<path d="M686 672L739.5 639.5V645L693 677V840L659.5 865.5V643L731 614L739.5 621.5L676.5 650.5L679.5 815L686 791.5V672Z" fill="url(#paint13_linear_1535_3)" fill-opacity="0.44"/>
<path d="M480.5 527.5V516L603 478.5L729 519.5L731 527.5L603 488.5L480.5 527.5Z" fill="url(#paint14_linear_1535_3)" fill-opacity="0.44"/>
<path d="M425 497V485.5L603 425.5L782.5 486V495.5L603 436.5L425 497Z" fill="url(#paint15_linear_1535_3)" fill-opacity="0.44"/>
<path d="M603 376.5C519.4 380.102 467.833 432.667 452.5 458.5C473.167 434.333 532.2 386.2 603 387C673.8 387.8 722.333 422.83 743 444.997C723.5 418.497 672 378.997 603 376.5Z" fill="url(#paint16_linear_1535_3)" fill-opacity="0.44"/>
<mask id="mask0_1535_3" style="mask-type:alpha" maskUnits="userSpaceOnUse" x="306" y="178" width="600" height="205">
<path d="M347 271.5L306 308.5L377.5 382.5L407.5 348L347 271.5Z" fill="#EEC575"/>
<path d="M864.5 271.5L905.5 308.5L834 382.5L804 348L864.5 271.5Z" fill="#EEC575"/>
<path d="M419 339.5L360 260L399 235L422 273L434.5 266L413.5 227L453 207.5L489 294.5C467 300.1 433.167 326.833 419 339.5Z" fill="#EEC575"/>
<path d="M792.5 339.5L851.5 260L812.5 235L789.5 273L777 266L798 227L758.5 207.5L722.5 294.5C744.5 300.1 778.333 326.833 792.5 339.5Z" fill="#EEC575"/>
<path d="M516 189.5L471.5 202L499.5 289L540.5 275L516 189.5Z" fill="#EEC575"/>
<path d="M695.5 189.5L740 202L712 289L671 275L695.5 189.5Z" fill="#EEC575"/>
<path d="M554.5 271.5L533 184.5C589 173.3 652.333 179.833 677 184.5L655 271.5C616.2 263.5 571.833 268.166 554.5 271.5Z" fill="#EEC575"/>
</mask>
<g mask="url(#mask0_1535_3)">
<path d="M378 396.5L306.5 340.5L288 331C288.667 321.167 291.3 300.9 296.5 298.5C303 295.5 356.5 247.5 371 244C382.6 241.2 418.167 202.833 434.5 184L586.5 177.5L714 207.5L822.5 244L921 311.5C908.167 329.167 882 365.1 880 367.5C878 369.9 849.833 387.833 836 396.5L786.5 340.5L677.5 293L586.5 281L479 311.5L378 396.5Z" fill="#DAA547"/>
<path d="M599.5 217.074C495.9 220.274 392 330.074 353 384.574L383 410.574L417 366.574L538.5 296.074H654L834.5 399.074C889.5 405.074 987.719 388.398 899.5 322.574C789.5 240.5 729 213.074 599.5 217.074Z" fill="#A76723"/>
<path d="M697 210C516.2 163.2 362 271.5 307.5 331.5L297 304.5L365.5 244L489 189L593.5 168.5L727.5 176.5L916.5 304.5V349.095C916.609 350.653 916.605 352.124 916.5 353.5V349.095C914.366 318.575 869.017 254.527 697 210Z" fill="#E3EDED"/>
</g>
<rect x="605" y="976.5" width="129.401" height="129.401" transform="rotate(45 605 976.5)" fill="#CC9340"/>
<rect x="605" y="1005.5" width="96.8736" height="96.8736" transform="rotate(45 605 1005.5)" fill="#1A1F1D"/>
<path fill-rule="evenodd" clip-rule="evenodd" d="M643.5 1070L605 1108.5L566.5 1070L559 1077.5L605 1123.5L651 1077.5L643.5 1070Z" fill="#79400E"/>
<circle cx="605" cy="1058.5" r="20" fill="#CC9340"/>
<path d="M433.5 937.5C454.501 941 504.501 974.5 495 1042.5C430 1017 433.5 979 433.5 937.5Z" fill="url(#paint17_radial_1535_3)"/>
<path d="M371 1057C389.5 1040.5 435.5 1018.5 485 1061C442.5 1097.5 414 1087 371 1057Z" fill="url(#paint18_radial_1535_3)"/>
<path d="M346.258 887.5C367.925 898.167 407.858 933.1 394.258 987.5C333.258 963.5 339.252 922.5 346.258 887.5Z" fill="url(#paint19_radial_1535_3)"/>
<path d="M332.5 1026.5C288.5 1024.5 268 997.5 253.5 984C313.5 954 363.5 986.166 381 1006C373 1014.5 364.5 1026.5 332.5 1026.5Z" fill="url(#paint20_radial_1535_3)"/>
<path d="M277.86 815.5C296.193 831.167 325.56 873.9 296.36 919.5C259.857 893 257.36 842 277.86 815.5Z" fill="url(#paint21_radial_1535_3)"/>
<path d="M166 888.968C181.667 917.816 226.2 966.606 279 930.975C251.5 890.995 212 873.786 166 888.968Z" fill="url(#paint22_radial_1535_3)"/>
<path d="M224.964 835.5C236.797 822.167 255.464 785.3 235.464 744.5C195.962 775.999 213.462 812.999 224.964 835.5Z" fill="#E1B75A"/>
<path d="M119 798.856C140.333 791.856 189.6 791.156 216 844.356C154.5 851.355 141.5 828.355 119 798.856Z" fill="#D9AC55"/>
<path d="M78 713.62C86.3333 730.62 114.5 763.62 160.5 759.62C133 710.12 102 710.621 78 713.62Z" fill="url(#paint23_radial_1535_3)"/>
<path d="M173.861 745C188.028 736.333 211.761 707.9 193.361 663.5C157.359 695.501 163.859 726.501 173.861 745Z" fill="#E3B863"/>
<path d="M148.037 652C147.37 637 155.437 604.5 193.037 594.5C193.037 633.5 175.537 648 148.037 652Z" fill="#E7BD6C"/>
<path d="M62 616.5C82.5 617 125.8 631.2 135 684C75 697.5 62 634 62 616.5Z" fill="url(#paint24_radial_1535_3)"/>
<path d="M135.019 583.5C134.519 569.167 143.919 538.7 185.519 531.5C189.52 564 161.02 583.5 135.019 583.5Z" fill="#E7C678"/>
<path d="M64.5477 503.5C86.5477 513.333 127.848 546.2 117.048 599C62.0477 579.5 60.0488 542.5 64.5477 503.5Z" fill="url(#paint25_radial_1535_3)"/>
<path d="M94.1265 397.5C112.96 411.167 145.727 451.7 126.127 504.5C68.1271 478.5 81.1234 417.5 94.1265 397.5Z" fill="url(#paint26_radial_1535_3)"/>
<path d="M142 504C144.167 486.667 158.6 451.3 199 448.5C199 488.001 167.5 505.501 142 504Z" fill="#EDCA7B"/>
<path d="M157 347C195.5 263.5 327 132 479.5 105" stroke="#CC9340" stroke-width="45" stroke-linecap="round"/>
<path d="M776.688 937C755.687 940.5 705.687 974 715.188 1042C780.188 1016.5 776.688 978.5 776.688 937Z" fill="url(#paint27_radial_1535_3)"/>
<path d="M839.188 1056.5C820.688 1040 774.688 1018 725.188 1060.5C767.688 1097 796.188 1086.5 839.188 1056.5Z" fill="url(#paint28_radial_1535_3)"/>
<path d="M863.929 887C842.263 897.667 802.329 932.6 815.929 987C876.929 963 870.935 922 863.929 887Z" fill="url(#paint29_radial_1535_3)"/>
<path d="M877.688 1026C921.688 1024 942.188 997 956.688 983.5C896.688 953.5 846.688 985.666 829.188 1005.5C837.188 1014 845.688 1026 877.688 1026Z" fill="url(#paint30_radial_1535_3)"/>
<path d="M932.328 815C913.994 830.667 884.628 873.4 913.828 919C950.33 892.5 952.828 841.5 932.328 815Z" fill="url(#paint31_radial_1535_3)"/>
<path d="M1044.19 888.468C1028.52 917.316 983.987 966.106 931.188 930.475C958.688 890.495 998.188 873.286 1044.19 888.468Z" fill="url(#paint32_radial_1535_3)"/>
<path d="M985.223 835C973.39 821.667 954.723 784.8 974.723 744C1014.23 775.499 996.726 812.499 985.223 835Z" fill="#E1B75A"/>
<path d="M1091.19 798.356C1069.85 791.356 1020.59 790.656 994.188 843.856C1055.69 850.855 1068.69 827.855 1091.19 798.356Z" fill="#D9AC55"/>
<path d="M1132.19 713.12C1123.85 730.12 1095.69 763.12 1049.69 759.12C1077.19 709.62 1108.19 710.121 1132.19 713.12Z" fill="url(#paint33_radial_1535_3)"/>
<path d="M1036.33 744.5C1022.16 735.833 998.426 707.4 1016.83 663C1052.83 695.001 1046.33 726.001 1036.33 744.5Z" fill="#E3B863"/>
<path d="M1062.15 651.5C1062.82 636.5 1054.75 604 1017.15 594C1017.15 633 1034.65 647.5 1062.15 651.5Z" fill="#E7BD6C"/>
<path d="M1148.19 616C1127.69 616.5 1084.39 630.7 1075.19 683.5C1135.19 697 1148.19 633.5 1148.19 616Z" fill="url(#paint34_radial_1535_3)"/>
<path d="M1075.17 583C1075.67 568.667 1066.27 538.2 1024.67 531C1020.67 563.5 1049.17 583 1075.17 583Z" fill="#E7C678"/>
<path d="M1145.64 503C1123.64 512.833 1082.34 545.7 1093.14 598.5C1148.14 579 1150.14 542 1145.64 503Z" fill="url(#paint35_radial_1535_3)"/>
<path d="M1116.06 397C1097.23 410.667 1064.46 451.2 1084.06 504C1142.06 478 1129.06 417 1116.06 397Z" fill="url(#paint36_radial_1535_3)"/>
<path d="M1068.19 503.5C1066.02 486.167 1051.59 450.8 1011.19 448C1011.19 487.501 1042.69 505.001 1068.19 503.5Z" fill="#EDCA7B"/>
<path d="M1053.19 346.5C1014.69 263 883.188 131.5 730.688 104.5" stroke="#CC9340" stroke-width="45" stroke-linecap="round"/>
<path fill-rule="evenodd" clip-rule="evenodd" d="M393 65.5C404.598 65.5 414 56.098 414 44.5C414 32.902 404.598 23.5 393 23.5C381.402 23.5 372 32.902 372 44.5C372 56.098 381.402 65.5 393 65.5ZM393 53.5C397.971 53.5 402 49.4706 402 44.5C402 39.5294 397.971 35.5 393 35.5C388.029 35.5 384 39.5294 384 44.5C384 49.4706 388.029 53.5 393 53.5Z" fill="#CC9340"/>
<path fill-rule="evenodd" clip-rule="evenodd" d="M828 65.5C839.598 65.5 849 56.098 849 44.5C849 32.902 839.598 23.5 828 23.5C816.402 23.5 807 32.902 807 44.5C807 56.098 816.402 65.5 828 65.5ZM828 53.5C832.971 53.5 837 49.4706 837 44.5C837 39.5294 832.971 35.5 828 35.5C823.029 35.5 819 39.5294 819 44.5C819 49.4706 823.029 53.5 828 53.5Z" fill="#CC9340"/>
<path fill-rule="evenodd" clip-rule="evenodd" d="M731 927.5C742.598 927.5 752 918.098 752 906.5C752 894.902 742.598 885.5 731 885.5C719.402 885.5 710 894.902 710 906.5C710 918.098 719.402 927.5 731 927.5ZM731 915.5C735.971 915.5 740 911.471 740 906.5C740 901.529 735.971 897.5 731 897.5C726.029 897.5 722 901.529 722 906.5C722 911.471 726.029 915.5 731 915.5Z" fill="#CC9340"/>
<path fill-rule="evenodd" clip-rule="evenodd" d="M478 927.5C489.598 927.5 499 918.098 499 906.5C499 894.902 489.598 885.5 478 885.5C466.402 885.5 457 894.902 457 906.5C457 918.098 466.402 927.5 478 927.5ZM478 915.5C482.971 915.5 487 911.471 487 906.5C487 901.529 482.971 897.5 478 897.5C473.029 897.5 469 901.529 469 906.5C469 911.471 473.029 915.5 478 915.5Z" fill="#CC9340"/>
<path d="M604.5 959.5V913" stroke="#CC9340" stroke-width="14"/>
<path d="M405.5 44.5H532.5V7H677V44.5H815.5" stroke="#CC9340" stroke-width="13"/>
<path d="M605.5 57V11.5" stroke="#CC9340" stroke-width="14"/>
<path d="M570 138.5L570 36.5" stroke="#CC9340" stroke-width="14"/>
<path d="M639 138.5L639 36.5" stroke="#CC9340" stroke-width="14"/>
<circle cx="605.5" cy="87" r="10.5" fill="#CC9340"/>
<circle cx="605.5" cy="134" r="10.5" fill="#CC9340"/>
<path d="M491.5 906.5H523V940L547.5 964.5V993" stroke="#CC9340" stroke-width="14"/>
<path d="M719 906.5H687.5V940L663 964.5V993" stroke="#CC9340" stroke-width="14"/>
<path fill-rule="evenodd" clip-rule="evenodd" d="M1193 427.5C1204.6 427.5 1214 418.098 1214 406.5C1214 394.902 1204.6 385.5 1193 385.5C1181.4 385.5 1172 394.902 1172 406.5C1172 418.098 1181.4 427.5 1193 427.5ZM1193 415.5C1197.97 415.5 1202 411.471 1202 406.5C1202 401.529 1197.97 397.5 1193 397.5C1188.03 397.5 1184 401.529 1184 406.5C1184 411.471 1188.03 415.5 1193 415.5Z" fill="#CC9340"/>
<path d="M1192.5 617.5V419" stroke="#CC9340" stroke-width="14"/>
<circle cx="1192.5" cy="620" r="11.5" fill="#CC9340"/>
<path fill-rule="evenodd" clip-rule="evenodd" d="M21 427.5C32.598 427.5 42 418.098 42 406.5C42 394.902 32.598 385.5 21 385.5C9.40202 385.5 0 394.902 0 406.5C0 418.098 9.40202 427.5 21 427.5ZM21 415.5C25.9706 415.5 30 411.471 30 406.5C30 401.529 25.9706 397.5 21 397.5C16.0294 397.5 12 401.529 12 406.5C12 411.471 16.0294 415.5 21 415.5Z" fill="#CC9340"/>
<path d="M20.5 617.5V419" stroke="#CC9340" stroke-width="14"/>
<circle cx="20.5" cy="620" r="11.5" fill="#CC9340"/>
<circle cx="230.5" cy="552" r="11.5" fill="#CC9340"/>
<circle cx="978.5" cy="552" r="11.5" fill="#CC9340"/>
<path fill-rule="evenodd" clip-rule="evenodd" d="M297 433.5C308.598 433.5 318 424.098 318 412.5C318 400.902 308.598 391.5 297 391.5C285.402 391.5 276 400.902 276 412.5C276 424.098 285.402 433.5 297 433.5ZM297 421.5C301.971 421.5 306 417.471 306 412.5C306 407.529 301.971 403.5 297 403.5C292.029 403.5 288 407.529 288 412.5C288 417.471 292.029 421.5 297 421.5Z" fill="#CC9340"/>
<path d="M376 444.5H331L309 422.5" stroke="#CC9340" stroke-width="14"/>
<path fill-rule="evenodd" clip-rule="evenodd" d="M907 433.5C895.402 433.5 886 424.098 886 412.5C886 400.902 895.402 391.5 907 391.5C918.598 391.5 928 400.902 928 412.5C928 424.098 918.598 433.5 907 433.5ZM907 421.5C902.029 421.5 898 417.471 898 412.5C898 407.529 902.029 403.5 907 403.5C911.971 403.5 916 407.529 916 412.5C916 417.471 911.971 421.5 907 421.5Z" fill="#CC9340"/>
<path d="M828 444.5H873L895 422.5" stroke="#CC9340" stroke-width="14"/>
<path fill-rule="evenodd" clip-rule="evenodd" d="M105 294.5C116.598 294.5 126 285.098 126 273.5C126 261.902 116.598 252.5 105 252.5C93.402 252.5 84 261.902 84 273.5C84 285.098 93.402 294.5 105 294.5ZM105 282.5C109.971 282.5 114 278.471 114 273.5C114 268.529 109.971 264.5 105 264.5C100.029 264.5 96 268.529 96 273.5C96 278.471 100.029 282.5 105 282.5Z" fill="#CC9340"/>
<path d="M394.5 530.5H327.5L290.5 493.5H272L240 461.5V395H190.5L163 422.5L105 364.5V290" stroke="#CC9340" stroke-width="14"/>
<path d="M230.5 552.5H264L273 561.5H296.5L326.5 531.5" stroke="#CC9340" stroke-width="14"/>
<path fill-rule="evenodd" clip-rule="evenodd" d="M1104.5 294.5C1092.9 294.5 1083.5 285.098 1083.5 273.5C1083.5 261.902 1092.9 252.5 1104.5 252.5C1116.1 252.5 1125.5 261.902 1125.5 273.5C1125.5 285.098 1116.1 294.5 1104.5 294.5ZM1104.5 282.5C1099.53 282.5 1095.5 278.471 1095.5 273.5C1095.5 268.529 1099.53 264.5 1104.5 264.5C1109.47 264.5 1113.5 268.529 1113.5 273.5C1113.5 278.471 1109.47 282.5 1104.5 282.5Z" fill="#CC9340"/>
<path d="M815 530.5H882L919 493.5H937.5L969.5 461.5V395H1019L1046.5 422.5L1104.5 364.5V290" stroke="#CC9340" stroke-width="14"/>
<path d="M979 552.5H945.5L936.5 561.5H913L883 531.5" stroke="#CC9340" stroke-width="14"/>
<path fill-rule="evenodd" clip-rule="evenodd" d="M370 771.5C381.598 771.5 391 762.098 391 750.5C391 738.902 381.598 729.5 370 729.5C358.402 729.5 349 738.902 349 750.5C349 762.098 358.402 771.5 370 771.5ZM370 759.5C374.971 759.5 379 755.471 379 750.5C379 745.529 374.971 741.5 370 741.5C365.029 741.5 361 745.529 361 750.5C361 755.471 365.029 759.5 370 759.5Z" fill="#CC9340"/>
<path d="M323 852H374L407 819V787.5L380.5 761" stroke="#CC9340" stroke-width="14"/>
<path fill-rule="evenodd" clip-rule="evenodd" d="M839 771.5C827.402 771.5 818 762.098 818 750.5C818 738.902 827.402 729.5 839 729.5C850.598 729.5 860 738.902 860 750.5C860 762.098 850.598 771.5 839 771.5ZM839 759.5C834.029 759.5 830 755.471 830 750.5C830 745.529 834.029 741.5 839 741.5C843.971 741.5 848 745.529 848 750.5C848 755.471 843.971 759.5 839 759.5Z" fill="#CC9340"/>
<path d="M886 852H835L802 819V787.5L828.5 761" stroke="#CC9340" stroke-width="14"/>
<circle cx="311.5" cy="663" r="10.5" fill="#CC9340"/>
<circle cx="311.5" cy="712" r="10.5" fill="#CC9340"/>
<path d="M220 615.5H391.5" stroke="#CC9340" stroke-width="14"/>
<path d="M220 663.5H279" stroke="#CC9340" stroke-width="14"/>
<path d="M220 712.5H279" stroke="#CC9340" stroke-width="14"/>
<circle cx="10.5" cy="10.5" r="10.5" transform="matrix(-1 0 0 1 908.5 652.5)" fill="#CC9340"/>
<circle cx="10.5" cy="10.5" r="10.5" transform="matrix(-1 0 0 1 908.5 701.5)" fill="#CC9340"/>
<path d="M989.5 615.5H818" stroke="#CC9340" stroke-width="14"/>
<path d="M989.5 663.5H930.5" stroke="#CC9340" stroke-width="14"/>
<path d="M989.5 712.5H930.5" stroke="#CC9340" stroke-width="14"/>
<defs>
<linearGradient id="paint0_linear_1535_3" x1="415.5" y1="402.5" x2="410.5" y2="398" gradientUnits="userSpaceOnUse">
<stop stop-color="#CF9E51"/>
<stop offset="1" stop-color="#F3CA89"/>
</linearGradient>
<linearGradient id="paint1_linear_1535_3" x1="448.5" y1="360" x2="454" y2="366.5" gradientUnits="userSpaceOnUse">
<stop offset="0.06" stop-color="#EACE97"/>
<stop offset="1" stop-color="#DEB15A"/>
</linearGradient>
<linearGradient id="paint2_linear_1535_3" x1="604.5" y1="336.005" x2="593" y2="336.005" gradientUnits="userSpaceOnUse">
<stop stop-color="#C7933E"/>
<stop offset="0.0001" stop-color="#F1C874"/>
</linearGradient>
<linearGradient id="paint3_linear_1535_3" x1="420.5" y1="627.5" x2="778" y2="631.5" gradientUnits="userSpaceOnUse">
<stop offset="0.51252" stop-color="#E8BF6B"/>
<stop offset="0.51262" stop-color="#7E410E"/>
</linearGradient>
<radialGradient id="paint4_radial_1535_3" cx="0" cy="0" r="1" gradientUnits="userSpaceOnUse" gradientTransform="translate(466 429) rotate(53.0842) scale(374.6 522.119)">
<stop offset="0.575" stop-color="#E8BF6B" stop-opacity="0.35"/>
<stop offset="1" stop-color="#8F5519"/>
</radialGradient>
<linearGradient id="paint5_linear_1535_3" x1="463" y1="586.5" x2="749" y2="586.5" gradientUnits="userSpaceOnUse">
<stop offset="0.486331" stop-color="#FDFAE0" stop-opacity="0.55"/>
<stop offset="0.491829" stop-color="#DEAB51"/>
</linearGradient>
<linearGradient id="paint6_linear_1535_3" x1="463" y1="586.5" x2="749" y2="586.5" gradientUnits="userSpaceOnUse">
<stop offset="0.486331" stop-color="#FDFAE0" stop-opacity="0.55"/>
<stop offset="0.491829" stop-color="#DEAB51"/>
</linearGradient>
<linearGradient id="paint7_linear_1535_3" x1="463" y1="586.5" x2="749" y2="586.5" gradientUnits="userSpaceOnUse">
<stop offset="0.486331" stop-color="#FDFAE0" stop-opacity="0.55"/>
<stop offset="0.491829" stop-color="#DEAB51"/>
</linearGradient>
<linearGradient id="paint8_linear_1535_3" x1="463" y1="586.5" x2="749" y2="586.5" gradientUnits="userSpaceOnUse">
<stop offset="0.486331" stop-color="#FDFAE0" stop-opacity="0.55"/>
<stop offset="0.491829" stop-color="#DEAB51"/>
</linearGradient>
<linearGradient id="paint9_linear_1535_3" x1="463" y1="586.5" x2="749" y2="586.5" gradientUnits="userSpaceOnUse">
<stop offset="0.486331" stop-color="#FDFAE0" stop-opacity="0.55"/>
<stop offset="0.491829" stop-color="#DEAB51"/>
</linearGradient>
<linearGradient id="paint10_linear_1535_3" x1="463" y1="586.5" x2="749" y2="586.5" gradientUnits="userSpaceOnUse">
<stop offset="0.486331" stop-color="#FDFAE0" stop-opacity="0.55"/>
<stop offset="0.491829" stop-color="#DEAB51"/>
</linearGradient>
<linearGradient id="paint11_linear_1535_3" x1="547" y1="586.5" x2="683" y2="836.5" gradientUnits="userSpaceOnUse">
<stop offset="0.0706653" stop-color="#E8EACE"/>
<stop offset="0.408116" stop-color="#AA6F18"/>
</linearGradient>
<linearGradient id="paint12_linear_1535_3" x1="547" y1="586.5" x2="683" y2="836.5" gradientUnits="userSpaceOnUse">
<stop offset="0.0706653" stop-color="#E8EACE"/>
<stop offset="0.408116" stop-color="#AA6F18"/>
</linearGradient>
<linearGradient id="paint13_linear_1535_3" x1="547" y1="586.5" x2="683" y2="836.5" gradientUnits="userSpaceOnUse">
<stop offset="0.0706653" stop-color="#E8EACE"/>
<stop offset="0.408116" stop-color="#AA6F18"/>
</linearGradient>
<linearGradient id="paint14_linear_1535_3" x1="547" y1="586.5" x2="683" y2="836.5" gradientUnits="userSpaceOnUse">
<stop offset="0.0706653" stop-color="#E8EACE"/>
<stop offset="0.408116" stop-color="#AA6F18"/>
</linearGradient>
<linearGradient id="paint15_linear_1535_3" x1="547" y1="586.5" x2="683" y2="836.5" gradientUnits="userSpaceOnUse">
<stop offset="0.0706653" stop-color="#E8EACE"/>
<stop offset="0.408116" stop-color="#AA6F18"/>
</linearGradient>
<linearGradient id="paint16_linear_1535_3" x1="547" y1="586.5" x2="683" y2="836.5" gradientUnits="userSpaceOnUse">
<stop offset="0.0706653" stop-color="#E8EACE"/>
<stop offset="0.408116" stop-color="#AA6F18"/>
</linearGradient>
<radialGradient id="paint17_radial_1535_3" cx="0" cy="0" r="1" gradientUnits="userSpaceOnUse" gradientTransform="translate(517 948.5) rotate(145.604) scale(78.7734 105.52)">
<stop offset="0.986565" stop-color="#C28732"/>
<stop offset="1" stop-color="#7B3A17"/>
</radialGradient>
<radialGradient id="paint18_radial_1535_3" cx="0" cy="0" r="1" gradientUnits="userSpaceOnUse" gradientTransform="translate(425.5 1025.5) rotate(86.7481) scale(44.071 105.015)">
<stop offset="0.955" stop-color="#CA913C"/>
<stop offset="1" stop-color="#793F0E"/>
</radialGradient>
<radialGradient id="paint19_radial_1535_3" cx="0" cy="0" r="1" gradientUnits="userSpaceOnUse" gradientTransform="translate(425 912.5) rotate(135) scale(73.5391 102.147)">
<stop offset="0.98" stop-color="#E0AC57"/>
<stop offset="1" stop-color="#8D5812"/>
</radialGradient>
<radialGradient id="paint20_radial_1535_3" cx="0" cy="0" r="1" gradientUnits="userSpaceOnUse" gradientTransform="translate(325.5 952.5) rotate(93.3949) scale(59.1037 114.396)">
<stop offset="0.945" stop-color="#CB923C"/>
<stop offset="1" stop-color="#79400E"/>
</radialGradient>
<radialGradient id="paint21_radial_1535_3" cx="0" cy="0" r="1" gradientUnits="userSpaceOnUse" gradientTransform="translate(287 832.5) rotate(75.1546) scale(85.8662 34.4101)">
<stop offset="0.97" stop-color="#E4B55C"/>
<stop offset="1" stop-color="#946410"/>
</radialGradient>
<radialGradient id="paint22_radial_1535_3" cx="0" cy="0" r="1" gradientUnits="userSpaceOnUse" gradientTransform="translate(241 876) rotate(105.11) scale(51.7904 100.389)">
<stop offset="0.975" stop-color="#D3A14C"/>
<stop offset="1" stop-color="#884718"/>
</radialGradient>
<radialGradient id="paint23_radial_1535_3" cx="0" cy="0" r="1" gradientUnits="userSpaceOnUse" gradientTransform="translate(133 709.5) rotate(108.232) scale(44.7465 77.7935)">
<stop offset="0.98" stop-color="#E6B965"/>
<stop offset="1" stop-color="#EDCB84"/>
</radialGradient>
<radialGradient id="paint24_radial_1535_3" cx="0" cy="0" r="1" gradientUnits="userSpaceOnUse" gradientTransform="translate(126 630) rotate(118.072) scale(51 72.5333)">
<stop offset="0.965" stop-color="#ECC275"/>
<stop offset="1" stop-color="#996A1F"/>
</radialGradient>
<radialGradient id="paint25_radial_1535_3" cx="0" cy="0" r="1" gradientUnits="userSpaceOnUse" gradientTransform="translate(107 535) rotate(155.376) scale(39.6011 68.2019)">
<stop offset="0.97" stop-color="#F0D185"/>
<stop offset="1" stop-color="#996424"/>
</radialGradient>
<radialGradient id="paint26_radial_1535_3" cx="0" cy="0" r="1" gradientUnits="userSpaceOnUse" gradientTransform="translate(162.5 432) rotate(142.98) scale(76.4003 99.8159)">
<stop offset="0.955" stop-color="#F3D188"/>
<stop offset="1" stop-color="#9E7030"/>
</radialGradient>
<radialGradient id="paint27_radial_1535_3" cx="0" cy="0" r="1" gradientUnits="userSpaceOnUse" gradientTransform="translate(693.188 948) rotate(34.3961) scale(78.7734 105.52)">
<stop offset="0.986565" stop-color="#C28732"/>
<stop offset="1" stop-color="#7B3A17"/>
</radialGradient>
<radialGradient id="paint28_radial_1535_3" cx="0" cy="0" r="1" gradientUnits="userSpaceOnUse" gradientTransform="translate(784.688 1025) rotate(93.2519) scale(44.071 105.015)">
<stop offset="0.955" stop-color="#CA913C"/>
<stop offset="1" stop-color="#793F0E"/>
</radialGradient>
<radialGradient id="paint29_radial_1535_3" cx="0" cy="0" r="1" gradientUnits="userSpaceOnUse" gradientTransform="translate(785.188 912) rotate(45) scale(73.5391 102.147)">
<stop offset="0.98" stop-color="#E0AC57"/>
<stop offset="1" stop-color="#8D5812"/>
</radialGradient>
<radialGradient id="paint30_radial_1535_3" cx="0" cy="0" r="1" gradientUnits="userSpaceOnUse" gradientTransform="translate(884.688 952) rotate(86.6051) scale(59.1037 114.396)">
<stop offset="0.945" stop-color="#CB923C"/>
<stop offset="1" stop-color="#79400E"/>
</radialGradient>
<radialGradient id="paint31_radial_1535_3" cx="0" cy="0" r="1" gradientUnits="userSpaceOnUse" gradientTransform="translate(923.187 832) rotate(104.845) scale(85.8662 34.4101)">
<stop offset="0.97" stop-color="#E4B55C"/>
<stop offset="1" stop-color="#946410"/>
</radialGradient>
<radialGradient id="paint32_radial_1535_3" cx="0" cy="0" r="1" gradientUnits="userSpaceOnUse" gradientTransform="translate(969.188 875.5) rotate(74.8904) scale(51.7904 100.389)">
<stop offset="0.975" stop-color="#D3A14C"/>
<stop offset="1" stop-color="#884718"/>
</radialGradient>
<radialGradient id="paint33_radial_1535_3" cx="0" cy="0" r="1" gradientUnits="userSpaceOnUse" gradientTransform="translate(1077.19 709) rotate(71.7675) scale(44.7465 77.7935)">
<stop offset="0.98" stop-color="#E6B965"/>
<stop offset="1" stop-color="#EDCB84"/>
</radialGradient>
<radialGradient id="paint34_radial_1535_3" cx="0" cy="0" r="1" gradientUnits="userSpaceOnUse" gradientTransform="translate(1084.19 629.5) rotate(61.9275) scale(51 72.5333)">
<stop offset="0.965" stop-color="#ECC275"/>
<stop offset="1" stop-color="#996A1F"/>
</radialGradient>
<radialGradient id="paint35_radial_1535_3" cx="0" cy="0" r="1" gradientUnits="userSpaceOnUse" gradientTransform="translate(1103.19 534.5) rotate(24.6236) scale(39.6011 68.2019)">
<stop offset="0.97" stop-color="#F0D185"/>
<stop offset="1" stop-color="#996424"/>
</radialGradient>
<radialGradient id="paint36_radial_1535_3" cx="0" cy="0" r="1" gradientUnits="userSpaceOnUse" gradientTransform="translate(1047.69 431.5) rotate(37.0199) scale(76.4003 99.8159)">
<stop offset="0.955" stop-color="#F3D188"/>
<stop offset="1" stop-color="#9E7030"/>
</radialGradient>
</defs>
</svg>
