<svg width="1214" height="1406" viewBox="0 0 1214 1406" fill="none" xmlns="http://www.w3.org/2000/svg">
<path d="M420 386.5L398 413L430.5 447.5L451.5 422L420 386.5Z" fill="url(#paint0_linear_1535_3)"/>
<path d="M789.5 385.5L811.5 412L779 446.5L758 421L789.5 385.5Z" fill="#7B4614"/>
<path d="M466.5 347.5L434 374L461 412L492.5 386L466.5 347.5Z" fill="url(#paint1_linear_1535_3)"/>
<path d="M743 346.5L775.5 373L748.5 411L717 385L743 346.5Z" fill="#94521B"/>
<path d="M504.5 379.505L480 339.505C498 327.338 547.8 302.905 603 302.505C658.2 302.105 710.333 327.005 729.5 339.505L704 379.505C691 370.005 652.6 351.305 603 352.505C553.4 353.705 516.667 371.005 504.5 379.505Z" fill="url(#paint2_linear_1535_3)"/>
<path fill-rule="evenodd" clip-rule="evenodd" d="M602.5 453.039L426 508.539V486.039C444 475.518 474.5 465.518 490.5 462.039C492.375 457.038 517.5 420.018 540 408.539C522 411.518 478 440.018 453 457.038C474 419.518 539 378.518 602.5 375.539C662 374.039 728 416.517 752.5 453.039C733 438.526 692.5 410.038 667.5 408.539C690.5 422.038 710.5 445.038 722 462.039L783 486.039V508.539L602.5 453.039ZM445.5 527.039L431.5 531.039L432 771.039L549 864.539V643.539L479 613.039V551.539L577.5 573.539V667.539L603.5 688.039L630.5 667.539V573.539L732 551.539V613.039L660 643.539V864.539L776 771.039V533.539L766 530.039V577.539H746V524.039L602.5 478.039L463 521.539V576.539H445.5V527.039ZM462.5 591H445.5L446 766.5L515 821V803L462.5 758V591ZM764.5 591.5H747.5V758.5L695 803.5V821.5L764 767L764.5 591.5Z" fill="url(#paint3_linear_1535_3)"/>
<path fill-rule="evenodd" clip-rule="evenodd" d="M602.5 453.039L426 508.539V486.039C444 475.518 474.5 465.518 490.5 462.039C492.375 457.038 517.5 420.018 540 408.539C522 411.518 478 440.018 453 457.038C474 419.518 539 378.518 602.5 375.539C662 374.039 728 416.517 752.5 453.039C733 438.526 692.5 410.038 667.5 408.539C690.5 422.038 710.5 445.038 722 462.039L783 486.039V508.539L602.5 453.039ZM445.5 527.039L431.5 531.039L432 771.039L549 864.539V643.539L479 613.039V551.539L577.5 573.539V667.539L603.5 688.039L630.5 667.539V573.539L732 551.539V613.039L660 643.539V864.539L776 771.039V533.539L766 530.039V577.539H746V524.039L602.5 478.039L463 521.539V576.539H445.5V527.039ZM462.5 591H445.5L446 766.5L515 821V803L462.5 758V591ZM764.5 591.5H747.5V758.5L695 803.5V821.5L764 767L764.5 591.5Z" fill="url(#paint4_radial_1535_3)"/>
<path d="M471 612L477 614L548.5 643V648.5L544.5 652.5L471 623V612Z" fill="url(#paint5_linear_1535_3)"/>
<path d="M471 647V638.5L526 673.5V816.5L548 831.5V865.5L516 840V819.5L514.5 677L471 647Z" fill="url(#paint6_linear_1535_3)"/>
<path d="M686 672L739.5 639.5V645L693 677V840L659.5 865.5V643L731 614L739.5 621.5L676.5 650.5L679.5 815L686 791.5V672Z" fill="url(#paint7_linear_1535_3)"/>
<path d="M480.5 527.5V516L603 478.5L729 519.5L731 527.5L603 488.5L480.5 527.5Z" fill="url(#paint8_linear_1535_3)"/>
<path d="M425 497V485.5L603 425.5L782.5 486V495.5L603 436.5L425 497Z" fill="url(#paint9_linear_1535_3)"/>
<path d="M603 376.5C519.4 380.102 467.833 432.667 452.5 458.5C473.167 434.333 532.2 386.2 603 387C673.8 387.8 722.333 422.83 743 444.997C723.5 418.497 672 378.997 603 376.5Z" fill="url(#paint10_linear_1535_3)"/>
<path d="M471 612L477 614L548.5 643V648.5L544.5 652.5L471 623V612Z" fill="url(#paint11_linear_1535_3)" fill-opacity="0.44"/>
<path d="M471 647V638.5L526 673.5V816.5L548 831.5V865.5L516 840V819.5L514.5 677L471 647Z" fill="url(#paint12_linear_1535_3)" fill-opacity="0.44"/>
<path d="M686 672L739.5 639.5V645L693 677V840L659.5 865.5V643L731 614L739.5 621.5L676.5 650.5L679.5 815L686 791.5V672Z" fill="url(#paint13_linear_1535_3)" fill-opacity="0.44"/>
<path d="M480.5 527.5V516L603 478.5L729 519.5L731 527.5L603 488.5L480.5 527.5Z" fill="url(#paint14_linear_1535_3)" fill-opacity="0.44"/>
<path d="M425 497V485.5L603 425.5L782.5 486V495.5L603 436.5L425 497Z" fill="url(#paint15_linear_1535_3)" fill-opacity="0.44"/>
<path d="M603 376.5C519.4 380.102 467.833 432.667 452.5 458.5C473.167 434.333 532.2 386.2 603 387C673.8 387.8 722.333 422.83 743 444.997C723.5 418.497 672 378.997 603 376.5Z" fill="url(#paint16_linear_1535_3)" fill-opacity="0.44"/>
<mask id="mask0_1535_3" style="mask-type:alpha" maskUnits="userSpaceOnUse" x="306" y="178" width="600" height="205">
<path d="M347 271.5L306 308.5L377.5 382.5L407.5 348L347 271.5Z" fill="#EEC575"/>
<path d="M864.5 271.5L905.5 308.5L834 382.5L804 348L864.5 271.5Z" fill="#EEC575"/>
<path d="M419 339.5L360 260L399 235L422 273L434.5 266L413.5 227L453 207.5L489 294.5C467 300.1 433.167 326.833 419 339.5Z" fill="#EEC575"/>
<path d="M792.5 339.5L851.5 260L812.5 235L789.5 273L777 266L798 227L758.5 207.5L722.5 294.5C744.5 300.1 778.333 326.833 792.5 339.5Z" fill="#EEC575"/>
<path d="M516 189.5L471.5 202L499.5 289L540.5 275L516 189.5Z" fill="#EEC575"/>
<path d="M695.5 189.5L740 202L712 289L671 275L695.5 189.5Z" fill="#EEC575"/>
<path d="M554.5 271.5L533 184.5C589 173.3 652.333 179.833 677 184.5L655 271.5C616.2 263.5 571.833 268.166 554.5 271.5Z" fill="#EEC575"/>
</mask>
<g mask="url(#mask0_1535_3)">
<path d="M378 396.5L306.5 340.5L288 331C288.667 321.167 291.3 300.9 296.5 298.5C303 295.5 356.5 247.5 371 244C382.6 241.2 418.167 202.833 434.5 184L586.5 177.5L714 207.5L822.5 244L921 311.5C908.167 329.167 882 365.1 880 367.5C878 369.9 849.833 387.833 836 396.5L786.5 340.5L677.5 293L586.5 281L479 311.5L378 396.5Z" fill="#DAA547"/>
<path d="M599.5 217.074C495.9 220.274 392 330.074 353 384.574L383 410.574L417 366.574L538.5 296.074H654L834.5 399.074C889.5 405.074 987.719 388.398 899.5 322.574C789.5 240.5 729 213.074 599.5 217.074Z" fill="#A76723"/>
<path d="M697 210C516.2 163.2 362 271.5 307.5 331.5L297 304.5L365.5 244L489 189L593.5 168.5L727.5 176.5L916.5 304.5V349.095C916.609 350.653 916.605 352.124 916.5 353.5V349.095C914.366 318.575 869.017 254.527 697 210Z" fill="#E3EDED"/>
</g>
<rect x="605" y="976.5" width="129.401" height="129.401" transform="rotate(45 605 976.5)" fill="#CC9340"/>
<rect x="605" y="1005.5" width="96.8736" height="96.8736" transform="rotate(45 605 1005.5)" fill="#1A1F1D"/>
<path fill-rule="evenodd" clip-rule="evenodd" d="M643.5 1070L605 1108.5L566.5 1070L559 1077.5L605 1123.5L651 1077.5L643.5 1070Z" fill="#79400E"/>
<circle cx="605" cy="1058.5" r="20" fill="#CC9340"/>
<path d="M433.5 937.5C454.501 941 504.501 974.5 495 1042.5C430 1017 433.5 979 433.5 937.5Z" fill="url(#paint17_radial_1535_3)"/>
<path d="M371 1057C389.5 1040.5 435.5 1018.5 485 1061C442.5 1097.5 414 1087 371 1057Z" fill="url(#paint18_radial_1535_3)"/>
<path d="M346.258 887.5C367.925 898.167 407.858 933.1 394.258 987.5C333.258 963.5 339.252 922.5 346.258 887.5Z" fill="url(#paint19_radial_1535_3)"/>
<path d="M332.5 1026.5C288.5 1024.5 268 997.5 253.5 984C313.5 954 363.5 986.166 381 1006C373 1014.5 364.5 1026.5 332.5 1026.5Z" fill="url(#paint20_radial_1535_3)"/>
<path d="M277.86 815.5C296.193 831.167 325.56 873.9 296.36 919.5C259.857 893 257.36 842 277.86 815.5Z" fill="url(#paint21_radial_1535_3)"/>
<path d="M166 888.968C181.667 917.816 226.2 966.606 279 930.975C251.5 890.995 212 873.786 166 888.968Z" fill="url(#paint22_radial_1535_3)"/>
<path d="M224.964 835.5C236.797 822.167 255.464 785.3 235.464 744.5C195.962 775.999 213.462 812.999 224.964 835.5Z" fill="#E1B75A"/>
<path d="M119 798.856C140.333 791.856 189.6 791.156 216 844.356C154.5 851.355 141.5 828.355 119 798.856Z" fill="#D9AC55"/>
<path d="M78 713.62C86.3333 730.62 114.5 763.62 160.5 759.62C133 710.12 102 710.621 78 713.62Z" fill="url(#paint23_radial_1535_3)"/>
<path d="M173.861 745C188.028 736.333 211.761 707.9 193.361 663.5C157.359 695.501 163.859 726.501 173.861 745Z" fill="#E3B863"/>
<path d="M148.037 652C147.37 637 155.437 604.5 193.037 594.5C193.037 633.5 175.537 648 148.037 652Z" fill="#E7BD6C"/>
<path d="M62 616.5C82.5 617 125.8 631.2 135 684C75 697.5 62 634 62 616.5Z" fill="url(#paint24_radial_1535_3)"/>
<path d="M135.019 583.5C134.519 569.167 143.919 538.7 185.519 531.5C189.52 564 161.02 583.5 135.019 583.5Z" fill="#E7C678"/>
<path d="M64.5477 503.5C86.5477 513.333 127.848 546.2 117.048 599C62.0477 579.5 60.0488 542.5 64.5477 503.5Z" fill="url(#paint25_radial_1535_3)"/>
<path d="M94.1265 397.5C112.96 411.167 145.727 451.7 126.127 504.5C68.1271 478.5 81.1234 417.5 94.1265 397.5Z" fill="url(#paint26_radial_1535_3)"/>
<path d="M142 504C144.167 486.667 158.6 451.3 199 448.5C199 488.001 167.5 505.501 142 504Z" fill="#EDCA7B"/>
<path d="M157 347C195.5 263.5 327 132 479.5 105" stroke="#CC9340" stroke-width="45" stroke-linecap="round"/>
<path d="M776.688 937C755.687 940.5 705.687 974 715.188 1042C780.188 1016.5 776.688 978.5 776.688 937Z" fill="url(#paint27_radial_1535_3)"/>
<path d="M839.188 1056.5C820.688 1040 774.688 1018 725.188 1060.5C767.688 1097 796.188 1086.5 839.188 1056.5Z" fill="url(#paint28_radial_1535_3)"/>
<path d="M863.929 887C842.263 897.667 802.329 932.6 815.929 987C876.929 963 870.935 922 863.929 887Z" fill="url(#paint29_radial_1535_3)"/>
<path d="M877.688 1026C921.688 1024 942.188 997 956.688 983.5C896.688 953.5 846.688 985.666 829.188 1005.5C837.188 1014 845.688 1026 877.688 1026Z" fill="url(#paint30_radial_1535_3)"/>
<path d="M932.328 815C913.994 830.667 884.628 873.4 913.828 919C950.33 892.5 952.828 841.5 932.328 815Z" fill="url(#paint31_radial_1535_3)"/>
<path d="M1044.19 888.468C1028.52 917.316 983.987 966.106 931.188 930.475C958.688 890.495 998.188 873.286 1044.19 888.468Z" fill="url(#paint32_radial_1535_3)"/>
<path d="M985.223 835C973.39 821.667 954.723 784.8 974.723 744C1014.23 775.499 996.726 812.499 985.223 835Z" fill="#E1B75A"/>
<path d="M1091.19 798.356C1069.85 791.356 1020.59 790.656 994.188 843.856C1055.69 850.855 1068.69 827.855 1091.19 798.356Z" fill="#D9AC55"/>
<path d="M1132.19 713.12C1123.85 730.12 1095.69 763.12 1049.69 759.12C1077.19 709.62 1108.19 710.121 1132.19 713.12Z" fill="url(#paint33_radial_1535_3)"/>
<path d="M1036.33 744.5C1022.16 735.833 998.426 707.4 1016.83 663C1052.83 695.001 1046.33 726.001 1036.33 744.5Z" fill="#E3B863"/>
<path d="M1062.15 651.5C1062.82 636.5 1054.75 604 1017.15 594C1017.15 633 1034.65 647.5 1062.15 651.5Z" fill="#E7BD6C"/>
<path d="M1148.19 616C1127.69 616.5 1084.39 630.7 1075.19 683.5C1135.19 697 1148.19 633.5 1148.19 616Z" fill="url(#paint34_radial_1535_3)"/>
<path d="M1075.17 583C1075.67 568.667 1066.27 538.2 1024.67 531C1020.67 563.5 1049.17 583 1075.17 583Z" fill="#E7C678"/>
<path d="M1145.64 503C1123.64 512.833 1082.34 545.7 1093.14 598.5C1148.14 579 1150.14 542 1145.64 503Z" fill="url(#paint35_radial_1535_3)"/>
<path d="M1116.06 397C1097.23 410.667 1064.46 451.2 1084.06 504C1142.06 478 1129.06 417 1116.06 397Z" fill="url(#paint36_radial_1535_3)"/>
<path d="M1068.19 503.5C1066.02 486.167 1051.59 450.8 1011.19 448C1011.19 487.501 1042.69 505.001 1068.19 503.5Z" fill="#EDCA7B"/>
<path d="M1053.19 346.5C1014.69 263 883.188 131.5 730.688 104.5" stroke="#CC9340" stroke-width="45" stroke-linecap="round"/>
<path fill-rule="evenodd" clip-rule="evenodd" d="M393 65.5C404.598 65.5 414 56.098 414 44.5C414 32.902 404.598 23.5 393 23.5C381.402 23.5 372 32.902 372 44.5C372 56.098 381.402 65.5 393 65.5ZM393 53.5C397.971 53.5 402 49.4706 402 44.5C402 39.5294 397.971 35.5 393 35.5C388.029 35.5 384 39.5294 384 44.5C384 49.4706 388.029 53.5 393 53.5Z" fill="#CC9340"/>
<path fill-rule="evenodd" clip-rule="evenodd" d="M828 65.5C839.598 65.5 849 56.098 849 44.5C849 32.902 839.598 23.5 828 23.5C816.402 23.5 807 32.902 807 44.5C807 56.098 816.402 65.5 828 65.5ZM828 53.5C832.971 53.5 837 49.4706 837 44.5C837 39.5294 832.971 35.5 828 35.5C823.029 35.5 819 39.5294 819 44.5C819 49.4706 823.029 53.5 828 53.5Z" fill="#CC9340"/>
<path fill-rule="evenodd" clip-rule="evenodd" d="M731 927.5C742.598 927.5 752 918.098 752 906.5C752 894.902 742.598 885.5 731 885.5C719.402 885.5 710 894.902 710 906.5C710 918.098 719.402 927.5 731 927.5ZM731 915.5C735.971 915.5 740 911.471 740 906.5C740 901.529 735.971 897.5 731 897.5C726.029 897.5 722 901.529 722 906.5C722 911.471 726.029 915.5 731 915.5Z" fill="#CC9340"/>
<path fill-rule="evenodd" clip-rule="evenodd" d="M478 927.5C489.598 927.5 499 918.098 499 906.5C499 894.902 489.598 885.5 478 885.5C466.402 885.5 457 894.902 457 906.5C457 918.098 466.402 927.5 478 927.5ZM478 915.5C482.971 915.5 487 911.471 487 906.5C487 901.529 482.971 897.5 478 897.5C473.029 897.5 469 901.529 469 906.5C469 911.471 473.029 915.5 478 915.5Z" fill="#CC9340"/>
<path d="M604.5 959.5V913" stroke="#CC9340" stroke-width="14"/>
<path d="M405.5 44.5H532.5V7H677V44.5H815.5" stroke="#CC9340" stroke-width="13"/>
<path d="M605.5 57V11.5" stroke="#CC9340" stroke-width="14"/>
<path d="M570 138.5L570 36.5" stroke="#CC9340" stroke-width="14"/>
<path d="M639 138.5L639 36.5" stroke="#CC9340" stroke-width="14"/>
<circle cx="605.5" cy="87" r="10.5" fill="#CC9340"/>
<circle cx="605.5" cy="134" r="10.5" fill="#CC9340"/>
<path d="M491.5 906.5H523V940L547.5 964.5V993" stroke="#CC9340" stroke-width="14"/>
<path d="M719 906.5H687.5V940L663 964.5V993" stroke="#CC9340" stroke-width="14"/>
<path fill-rule="evenodd" clip-rule="evenodd" d="M1193 427.5C1204.6 427.5 1214 418.098 1214 406.5C1214 394.902 1204.6 385.5 1193 385.5C1181.4 385.5 1172 394.902 1172 406.5C1172 418.098 1181.4 427.5 1193 427.5ZM1193 415.5C1197.97 415.5 1202 411.471 1202 406.5C1202 401.529 1197.97 397.5 1193 397.5C1188.03 397.5 1184 401.529 1184 406.5C1184 411.471 1188.03 415.5 1193 415.5Z" fill="#CC9340"/>
<path d="M1192.5 617.5V419" stroke="#CC9340" stroke-width="14"/>
<circle cx="1192.5" cy="620" r="11.5" fill="#CC9340"/>
<path fill-rule="evenodd" clip-rule="evenodd" d="M21 427.5C32.598 427.5 42 418.098 42 406.5C42 394.902 32.598 385.5 21 385.5C9.40202 385.5 0 394.902 0 406.5C0 418.098 9.40202 427.5 21 427.5ZM21 415.5C25.9706 415.5 30 411.471 30 406.5C30 401.529 25.9706 397.5 21 397.5C16.0294 397.5 12 401.529 12 406.5C12 411.471 16.0294 415.5 21 415.5Z" fill="#CC9340"/>
<path d="M20.5 617.5V419" stroke="#CC9340" stroke-width="14"/>
<circle cx="20.5" cy="620" r="11.5" fill="#CC9340"/>
<circle cx="230.5" cy="552" r="11.5" fill="#CC9340"/>
<circle cx="978.5" cy="552" r="11.5" fill="#CC9340"/>
<path fill-rule="evenodd" clip-rule="evenodd" d="M297 433.5C308.598 433.5 318 424.098 318 412.5C318 400.902 308.598 391.5 297 391.5C285.402 391.5 276 400.902 276 412.5C276 424.098 285.402 433.5 297 433.5ZM297 421.5C301.971 421.5 306 417.471 306 412.5C306 407.529 301.971 403.5 297 403.5C292.029 403.5 288 407.529 288 412.5C288 417.471 292.029 421.5 297 421.5Z" fill="#CC9340"/>
<path d="M376 444.5H331L309 422.5" stroke="#CC9340" stroke-width="14"/>
<path fill-rule="evenodd" clip-rule="evenodd" d="M907 433.5C895.402 433.5 886 424.098 886 412.5C886 400.902 895.402 391.5 907 391.5C918.598 391.5 928 400.902 928 412.5C928 424.098 918.598 433.5 907 433.5ZM907 421.5C902.029 421.5 898 417.471 898 412.5C898 407.529 902.029 403.5 907 403.5C911.971 403.5 916 407.529 916 412.5C916 417.471 911.971 421.5 907 421.5Z" fill="#CC9340"/>
<path d="M828 444.5H873L895 422.5" stroke="#CC9340" stroke-width="14"/>
<path fill-rule="evenodd" clip-rule="evenodd" d="M105 294.5C116.598 294.5 126 285.098 126 273.5C126 261.902 116.598 252.5 105 252.5C93.402 252.5 84 261.902 84 273.5C84 285.098 93.402 294.5 105 294.5ZM105 282.5C109.971 282.5 114 278.471 114 273.5C114 268.529 109.971 264.5 105 264.5C100.029 264.5 96 268.529 96 273.5C96 278.471 100.029 282.5 105 282.5Z" fill="#CC9340"/>
<path d="M394.5 530.5H327.5L290.5 493.5H272L240 461.5V395H190.5L163 422.5L105 364.5V290" stroke="#CC9340" stroke-width="14"/>
<path d="M230.5 552.5H264L273 561.5H296.5L326.5 531.5" stroke="#CC9340" stroke-width="14"/>
<path fill-rule="evenodd" clip-rule="evenodd" d="M1104.5 294.5C1092.9 294.5 1083.5 285.098 1083.5 273.5C1083.5 261.902 1092.9 252.5 1104.5 252.5C1116.1 252.5 1125.5 261.902 1125.5 273.5C1125.5 285.098 1116.1 294.5 1104.5 294.5ZM1104.5 282.5C1099.53 282.5 1095.5 278.471 1095.5 273.5C1095.5 268.529 1099.53 264.5 1104.5 264.5C1109.47 264.5 1113.5 268.529 1113.5 273.5C1113.5 278.471 1109.47 282.5 1104.5 282.5Z" fill="#CC9340"/>
<path d="M815 530.5H882L919 493.5H937.5L969.5 461.5V395H1019L1046.5 422.5L1104.5 364.5V290" stroke="#CC9340" stroke-width="14"/>
<path d="M979 552.5H945.5L936.5 561.5H913L883 531.5" stroke="#CC9340" stroke-width="14"/>
<path fill-rule="evenodd" clip-rule="evenodd" d="M370 771.5C381.598 771.5 391 762.098 391 750.5C391 738.902 381.598 729.5 370 729.5C358.402 729.5 349 738.902 349 750.5C349 762.098 358.402 771.5 370 771.5ZM370 759.5C374.971 759.5 379 755.471 379 750.5C379 745.529 374.971 741.5 370 741.5C365.029 741.5 361 745.529 361 750.5C361 755.471 365.029 759.5 370 759.5Z" fill="#CC9340"/>
<path d="M323 852H374L407 819V787.5L380.5 761" stroke="#CC9340" stroke-width="14"/>
<path fill-rule="evenodd" clip-rule="evenodd" d="M839 771.5C827.402 771.5 818 762.098 818 750.5C818 738.902 827.402 729.5 839 729.5C850.598 729.5 860 738.902 860 750.5C860 762.098 850.598 771.5 839 771.5ZM839 759.5C834.029 759.5 830 755.471 830 750.5C830 745.529 834.029 741.5 839 741.5C843.971 741.5 848 745.529 848 750.5C848 755.471 843.971 759.5 839 759.5Z" fill="#CC9340"/>
<path d="M886 852H835L802 819V787.5L828.5 761" stroke="#CC9340" stroke-width="14"/>
<circle cx="311.5" cy="663" r="10.5" fill="#CC9340"/>
<circle cx="311.5" cy="712" r="10.5" fill="#CC9340"/>
<path d="M220 615.5H391.5" stroke="#CC9340" stroke-width="14"/>
<path d="M220 663.5H279" stroke="#CC9340" stroke-width="14"/>
<path d="M220 712.5H279" stroke="#CC9340" stroke-width="14"/>
<circle cx="10.5" cy="10.5" r="10.5" transform="matrix(-1 0 0 1 908.5 652.5)" fill="#CC9340"/>
<circle cx="10.5" cy="10.5" r="10.5" transform="matrix(-1 0 0 1 908.5 701.5)" fill="#CC9340"/>
<path d="M989.5 615.5H818" stroke="#CC9340" stroke-width="14"/>
<path d="M989.5 663.5H930.5" stroke="#CC9340" stroke-width="14"/>
<path d="M989.5 712.5H930.5" stroke="#CC9340" stroke-width="14"/>
<path d="M248.126 1300.61C251.198 1300.61 254.078 1300.85 256.766 1301.33C259.55 1301.81 261.47 1302.29 262.526 1302.77L260.654 1310.84C259.886 1310.45 258.302 1310.07 255.902 1309.68C253.598 1309.2 250.526 1308.96 246.686 1308.96C242.654 1308.96 239.39 1309.25 236.894 1309.83C234.494 1310.4 232.91 1310.88 232.142 1311.27V1376.5H222.782V1305.51C225.182 1304.45 228.494 1303.4 232.718 1302.34C236.942 1301.19 242.078 1300.61 248.126 1300.61ZM340.146 1339.35C340.146 1345.2 339.282 1350.53 337.554 1355.33C335.922 1360.13 333.57 1364.21 330.498 1367.57C327.522 1370.93 323.97 1373.57 319.842 1375.49C315.714 1377.32 311.154 1378.23 306.162 1378.23C301.17 1378.23 296.61 1377.32 292.482 1375.49C288.354 1373.57 284.754 1370.93 281.682 1367.57C278.706 1364.21 276.354 1360.13 274.626 1355.33C272.994 1350.53 272.178 1345.2 272.178 1339.35C272.178 1333.49 272.994 1328.16 274.626 1323.36C276.354 1318.56 278.706 1314.48 281.682 1311.12C284.754 1307.67 288.354 1305.03 292.482 1303.2C296.61 1301.28 301.17 1300.32 306.162 1300.32C311.154 1300.32 315.714 1301.28 319.842 1303.2C323.97 1305.03 327.522 1307.67 330.498 1311.12C333.57 1314.48 335.922 1318.56 337.554 1323.36C339.282 1328.16 340.146 1333.49 340.146 1339.35ZM330.21 1339.35C330.21 1330.04 328.05 1322.64 323.73 1317.17C319.41 1311.6 313.554 1308.82 306.162 1308.82C298.77 1308.82 292.914 1311.6 288.594 1317.17C284.274 1322.64 282.114 1330.04 282.114 1339.35C282.114 1348.66 284.274 1356.05 288.594 1361.52C292.914 1367 298.77 1369.73 306.162 1369.73C313.554 1369.73 319.41 1367 323.73 1361.52C328.05 1356.05 330.21 1348.66 330.21 1339.35ZM360.454 1304.64C363.238 1303.88 366.838 1303.01 371.254 1302.05C375.766 1301.09 381.574 1300.61 388.678 1300.61C398.086 1300.61 404.902 1303.35 409.126 1308.82C409.606 1308.44 410.518 1307.81 411.862 1306.95C413.302 1305.99 415.078 1305.03 417.19 1304.07C419.302 1303.11 421.75 1302.29 424.534 1301.62C427.414 1300.95 430.582 1300.61 434.038 1300.61C439.702 1300.61 444.262 1301.48 447.718 1303.2C451.27 1304.84 454.006 1307.19 455.926 1310.26C457.846 1313.24 459.142 1316.84 459.814 1321.06C460.486 1325.28 460.822 1329.89 460.822 1334.88V1376.5H451.462V1337.91C451.462 1333.01 451.222 1328.79 450.742 1325.24C450.358 1321.59 449.494 1318.61 448.15 1316.31C446.902 1313.91 445.078 1312.13 442.678 1310.98C440.278 1309.73 437.158 1309.11 433.318 1309.11C430.438 1309.11 427.798 1309.4 425.398 1309.97C423.094 1310.45 421.078 1311.08 419.35 1311.84C417.622 1312.61 416.182 1313.38 415.03 1314.15C413.974 1314.92 413.206 1315.49 412.726 1315.88C413.59 1318.37 414.214 1321.2 414.598 1324.37C415.078 1327.44 415.318 1330.71 415.318 1334.16V1376.5H405.958V1337.91C405.958 1333.01 405.718 1328.79 405.238 1325.24C404.854 1321.59 403.99 1318.61 402.646 1316.31C401.302 1313.91 399.382 1312.13 396.886 1310.98C394.486 1309.73 391.27 1309.11 387.238 1309.11C382.726 1309.11 378.886 1309.35 375.718 1309.83C372.646 1310.31 370.678 1310.74 369.814 1311.12V1376.5H360.454V1304.64ZM508.239 1369.73C511.887 1369.73 515.055 1369.64 517.743 1369.44C520.527 1369.16 522.879 1368.82 524.799 1368.44V1342.23C523.743 1341.75 522.063 1341.27 519.759 1340.79C517.455 1340.21 514.287 1339.92 510.255 1339.92C507.951 1339.92 505.551 1340.12 503.055 1340.5C500.559 1340.79 498.255 1341.51 496.143 1342.66C494.031 1343.72 492.303 1345.2 490.959 1347.12C489.615 1349.04 488.943 1351.59 488.943 1354.76C488.943 1357.54 489.375 1359.89 490.239 1361.81C491.199 1363.73 492.495 1365.27 494.127 1366.42C495.855 1367.57 497.871 1368.44 500.175 1369.01C502.575 1369.49 505.263 1369.73 508.239 1369.73ZM507.375 1300.32C512.271 1300.32 516.399 1301.04 519.759 1302.48C523.215 1303.83 525.999 1305.75 528.111 1308.24C530.223 1310.64 531.759 1313.52 532.719 1316.88C533.679 1320.24 534.159 1323.89 534.159 1327.83V1374.77C533.199 1375.06 531.807 1375.4 529.983 1375.78C528.159 1376.07 526.047 1376.4 523.647 1376.79C521.247 1377.17 518.559 1377.46 515.583 1377.65C512.703 1377.94 509.727 1378.08 506.655 1378.08C502.719 1378.08 499.071 1377.65 495.711 1376.79C492.447 1375.92 489.567 1374.58 487.071 1372.76C484.671 1370.84 482.751 1368.44 481.311 1365.56C479.967 1362.58 479.295 1358.98 479.295 1354.76C479.295 1350.72 480.063 1347.27 481.599 1344.39C483.135 1341.51 485.295 1339.16 488.079 1337.33C490.863 1335.41 494.175 1334.02 498.015 1333.16C501.855 1332.29 506.031 1331.86 510.543 1331.86C511.887 1331.86 513.279 1331.96 514.719 1332.15C516.255 1332.24 517.695 1332.44 519.039 1332.72C520.479 1332.92 521.679 1333.16 522.639 1333.44C523.695 1333.64 524.415 1333.83 524.799 1334.02V1329.41C524.799 1326.82 524.607 1324.32 524.223 1321.92C523.839 1319.43 522.975 1317.22 521.631 1315.3C520.383 1313.28 518.559 1311.7 516.159 1310.55C513.855 1309.3 510.783 1308.68 506.943 1308.68C501.471 1308.68 497.391 1309.06 494.703 1309.83C492.015 1310.6 490.047 1311.22 488.799 1311.7L487.503 1303.49C489.135 1302.72 491.631 1302 494.991 1301.33C498.447 1300.66 502.575 1300.32 507.375 1300.32ZM558.032 1304.64C560.816 1303.88 564.56 1303.01 569.264 1302.05C573.968 1301.09 579.728 1300.61 586.544 1300.61C592.208 1300.61 596.912 1301.43 600.656 1303.06C604.496 1304.69 607.52 1307.04 609.728 1310.12C612.032 1313.09 613.664 1316.69 614.624 1320.92C615.584 1325.14 616.064 1329.8 616.064 1334.88V1376.5H606.704V1337.91C606.704 1332.63 606.32 1328.16 605.552 1324.52C604.88 1320.87 603.68 1317.89 601.952 1315.59C600.32 1313.28 598.112 1311.65 595.328 1310.69C592.64 1309.64 589.232 1309.11 585.104 1309.11C580.688 1309.11 576.848 1309.35 573.584 1309.83C570.416 1310.31 568.352 1310.74 567.392 1311.12V1376.5H558.032V1304.64ZM631.665 1330.28H664.209V1339.35H631.665V1330.28ZM690.017 1306.52C691.649 1305.27 694.241 1303.97 697.793 1302.63C701.441 1301.19 705.713 1300.47 710.609 1300.47C715.985 1300.47 720.737 1301.43 724.865 1303.35C729.089 1305.27 732.641 1307.96 735.521 1311.41C738.401 1314.87 740.561 1319 742.001 1323.8C743.537 1328.5 744.305 1333.68 744.305 1339.35C744.305 1345.4 743.393 1350.82 741.569 1355.62C739.841 1360.42 737.345 1364.5 734.081 1367.86C730.913 1371.22 727.073 1373.81 722.561 1375.64C718.145 1377.36 713.201 1378.23 707.729 1378.23C701.105 1378.23 695.633 1377.8 691.313 1376.93C686.993 1376.07 683.441 1375.16 680.657 1374.2V1266.48L690.017 1264.76V1306.52ZM690.017 1367.72C691.457 1368.2 693.569 1368.68 696.353 1369.16C699.233 1369.54 702.977 1369.73 707.585 1369.73C715.649 1369.73 722.129 1367.14 727.025 1361.96C731.921 1356.68 734.369 1349.14 734.369 1339.35C734.369 1335.22 733.937 1331.33 733.073 1327.68C732.209 1323.94 730.817 1320.72 728.897 1318.04C726.977 1315.25 724.433 1313.04 721.265 1311.41C718.193 1309.78 714.353 1308.96 709.745 1308.96C707.537 1308.96 705.425 1309.2 703.409 1309.68C701.393 1310.07 699.521 1310.6 697.793 1311.27C696.065 1311.94 694.529 1312.66 693.185 1313.43C691.937 1314.2 690.881 1314.92 690.017 1315.59V1367.72ZM784.915 1378.08C781.747 1372.23 778.675 1366.13 775.699 1359.8C772.819 1353.46 770.083 1347.08 767.491 1340.64C764.995 1334.12 762.691 1327.64 760.579 1321.2C758.467 1314.68 756.643 1308.29 755.107 1302.05H765.043C766.099 1306.66 767.443 1311.65 769.075 1317.03C770.707 1322.31 772.531 1327.78 774.547 1333.44C776.659 1339.11 778.963 1344.92 781.459 1350.87C783.955 1356.82 786.643 1362.68 789.523 1368.44C791.635 1362.48 793.507 1356.87 795.139 1351.59C796.771 1346.31 798.259 1341.08 799.603 1335.89C801.043 1330.61 802.387 1325.24 803.635 1319.76C804.979 1314.29 806.371 1308.39 807.811 1302.05H817.171C814.099 1315.97 810.595 1329.51 806.659 1342.66C802.723 1355.81 798.451 1367.86 793.843 1378.8C792.019 1383.12 790.147 1386.82 788.227 1389.89C786.307 1393.06 784.147 1395.65 781.747 1397.67C779.443 1399.68 776.707 1401.17 773.539 1402.13C770.467 1403.09 766.819 1403.57 762.595 1403.57C760.195 1403.57 757.987 1403.28 755.971 1402.71C754.051 1402.13 752.851 1401.7 752.371 1401.41L754.243 1393.64C754.627 1393.92 755.683 1394.31 757.411 1394.79C759.235 1395.36 761.107 1395.65 763.027 1395.65C765.715 1395.65 768.115 1395.36 770.227 1394.79C772.435 1394.21 774.403 1393.2 776.131 1391.76C777.859 1390.42 779.395 1388.64 780.739 1386.44C782.179 1384.23 783.571 1381.44 784.915 1378.08ZM841.598 1302.05H871.262V1309.97H841.598V1349.57C841.598 1353.8 841.934 1357.25 842.606 1359.94C843.374 1362.53 844.43 1364.55 845.774 1365.99C847.118 1367.43 848.75 1368.39 850.67 1368.87C852.59 1369.35 854.702 1369.59 857.006 1369.59C860.942 1369.59 864.11 1369.16 866.51 1368.29C868.91 1367.33 870.782 1366.47 872.126 1365.7L874.43 1373.48C873.086 1374.34 870.734 1375.35 867.374 1376.5C864.014 1377.56 860.366 1378.08 856.43 1378.08C851.822 1378.08 847.934 1377.51 844.766 1376.36C841.694 1375.11 839.198 1373.28 837.278 1370.88C835.454 1368.39 834.158 1365.32 833.39 1361.67C832.622 1358.02 832.238 1353.7 832.238 1348.71V1280.16L841.598 1278.44V1302.05ZM884.037 1339.2C884.037 1332.68 884.949 1327.01 886.773 1322.21C888.693 1317.32 891.141 1313.24 894.117 1309.97C897.189 1306.71 900.645 1304.31 904.485 1302.77C908.421 1301.14 912.453 1300.32 916.581 1300.32C925.701 1300.32 932.949 1303.3 938.325 1309.25C943.797 1315.2 946.533 1324.37 946.533 1336.76C946.533 1337.52 946.485 1338.29 946.389 1339.06C946.389 1339.83 946.341 1340.55 946.245 1341.22H893.973C894.261 1350.34 896.517 1357.35 900.741 1362.24C904.965 1367.14 911.685 1369.59 920.901 1369.59C925.989 1369.59 930.021 1369.11 932.997 1368.15C935.973 1367.19 938.133 1366.37 939.477 1365.7L941.205 1373.76C939.861 1374.53 937.317 1375.44 933.573 1376.5C929.925 1377.56 925.605 1378.08 920.613 1378.08C914.085 1378.08 908.517 1377.12 903.909 1375.2C899.301 1373.28 895.509 1370.6 892.533 1367.14C889.557 1363.68 887.397 1359.6 886.053 1354.9C884.709 1350.1 884.037 1344.87 884.037 1339.2ZM936.885 1333.3C936.693 1325.52 934.869 1319.48 931.413 1315.16C927.957 1310.84 923.061 1308.68 916.725 1308.68C913.365 1308.68 910.341 1309.35 907.653 1310.69C905.061 1312.04 902.757 1313.86 900.741 1316.16C898.821 1318.37 897.285 1320.96 896.133 1323.94C895.077 1326.92 894.453 1330.04 894.261 1333.3H936.885ZM982.656 1369.88C988.032 1369.88 992.448 1369.01 995.904 1367.28C999.456 1365.46 1001.23 1362.44 1001.23 1358.21C1001.23 1356.2 1000.9 1354.47 1000.22 1353.03C999.648 1351.59 998.64 1350.29 997.2 1349.14C995.76 1347.99 993.84 1346.88 991.44 1345.83C989.136 1344.77 986.256 1343.52 982.8 1342.08C980.016 1340.93 977.376 1339.78 974.88 1338.63C972.384 1337.38 970.176 1335.99 968.256 1334.45C966.336 1332.82 964.8 1330.9 963.648 1328.69C962.496 1326.48 961.92 1323.8 961.92 1320.63C961.92 1314.58 964.176 1309.68 968.688 1305.94C973.296 1302.2 979.584 1300.32 987.552 1300.32C992.64 1300.32 996.816 1300.76 1000.08 1301.62C1003.44 1302.48 1005.79 1303.25 1007.14 1303.92L1004.98 1312.28C1003.82 1311.7 1001.86 1310.93 999.072 1309.97C996.384 1309.01 992.4 1308.53 987.12 1308.53C985.008 1308.53 982.992 1308.77 981.072 1309.25C979.248 1309.64 977.616 1310.31 976.176 1311.27C974.736 1312.13 973.584 1313.28 972.72 1314.72C971.856 1316.07 971.424 1317.75 971.424 1319.76C971.424 1321.78 971.808 1323.51 972.576 1324.95C973.344 1326.39 974.448 1327.68 975.888 1328.84C977.424 1329.89 979.248 1330.9 981.36 1331.86C983.568 1332.82 986.064 1333.88 988.848 1335.03C991.728 1336.18 994.464 1337.38 997.056 1338.63C999.744 1339.78 1002.1 1341.22 1004.11 1342.95C1006.13 1344.58 1007.76 1346.6 1009.01 1349C1010.26 1351.3 1010.88 1354.23 1010.88 1357.78C1010.88 1364.5 1008.34 1369.59 1003.25 1373.04C998.256 1376.5 991.392 1378.23 982.656 1378.23C976.128 1378.23 971.136 1377.65 967.68 1376.5C964.224 1375.44 961.92 1374.63 960.768 1374.05L963.216 1365.56C963.504 1365.75 964.128 1366.08 965.088 1366.56C966.048 1366.95 967.344 1367.43 968.976 1368C970.608 1368.48 972.528 1368.92 974.736 1369.3C977.04 1369.68 979.68 1369.88 982.656 1369.88Z" fill="#E8BF6B"/>
<defs>
<linearGradient id="paint0_linear_1535_3" x1="415.5" y1="402.5" x2="410.5" y2="398" gradientUnits="userSpaceOnUse">
<stop stop-color="#CF9E51"/>
<stop offset="1" stop-color="#F3CA89"/>
</linearGradient>
<linearGradient id="paint1_linear_1535_3" x1="448.5" y1="360" x2="454" y2="366.5" gradientUnits="userSpaceOnUse">
<stop offset="0.06" stop-color="#EACE97"/>
<stop offset="1" stop-color="#DEB15A"/>
</linearGradient>
<linearGradient id="paint2_linear_1535_3" x1="604.5" y1="336.005" x2="593" y2="336.005" gradientUnits="userSpaceOnUse">
<stop stop-color="#C7933E"/>
<stop offset="0.0001" stop-color="#F1C874"/>
</linearGradient>
<linearGradient id="paint3_linear_1535_3" x1="420.5" y1="627.5" x2="778" y2="631.5" gradientUnits="userSpaceOnUse">
<stop offset="0.51252" stop-color="#E8BF6B"/>
<stop offset="0.51262" stop-color="#7E410E"/>
</linearGradient>
<radialGradient id="paint4_radial_1535_3" cx="0" cy="0" r="1" gradientUnits="userSpaceOnUse" gradientTransform="translate(466 429) rotate(53.0842) scale(374.6 522.119)">
<stop offset="0.575" stop-color="#E8BF6B" stop-opacity="0.35"/>
<stop offset="1" stop-color="#8F5519"/>
</radialGradient>
<linearGradient id="paint5_linear_1535_3" x1="463" y1="586.5" x2="749" y2="586.5" gradientUnits="userSpaceOnUse">
<stop offset="0.486331" stop-color="#FDFAE0" stop-opacity="0.55"/>
<stop offset="0.491829" stop-color="#DEAB51"/>
</linearGradient>
<linearGradient id="paint6_linear_1535_3" x1="463" y1="586.5" x2="749" y2="586.5" gradientUnits="userSpaceOnUse">
<stop offset="0.486331" stop-color="#FDFAE0" stop-opacity="0.55"/>
<stop offset="0.491829" stop-color="#DEAB51"/>
</linearGradient>
<linearGradient id="paint7_linear_1535_3" x1="463" y1="586.5" x2="749" y2="586.5" gradientUnits="userSpaceOnUse">
<stop offset="0.486331" stop-color="#FDFAE0" stop-opacity="0.55"/>
<stop offset="0.491829" stop-color="#DEAB51"/>
</linearGradient>
<linearGradient id="paint8_linear_1535_3" x1="463" y1="586.5" x2="749" y2="586.5" gradientUnits="userSpaceOnUse">
<stop offset="0.486331" stop-color="#FDFAE0" stop-opacity="0.55"/>
<stop offset="0.491829" stop-color="#DEAB51"/>
</linearGradient>
<linearGradient id="paint9_linear_1535_3" x1="463" y1="586.5" x2="749" y2="586.5" gradientUnits="userSpaceOnUse">
<stop offset="0.486331" stop-color="#FDFAE0" stop-opacity="0.55"/>
<stop offset="0.491829" stop-color="#DEAB51"/>
</linearGradient>
<linearGradient id="paint10_linear_1535_3" x1="463" y1="586.5" x2="749" y2="586.5" gradientUnits="userSpaceOnUse">
<stop offset="0.486331" stop-color="#FDFAE0" stop-opacity="0.55"/>
<stop offset="0.491829" stop-color="#DEAB51"/>
</linearGradient>
<linearGradient id="paint11_linear_1535_3" x1="547" y1="586.5" x2="683" y2="836.5" gradientUnits="userSpaceOnUse">
<stop offset="0.0706653" stop-color="#E8EACE"/>
<stop offset="0.408116" stop-color="#AA6F18"/>
</linearGradient>
<linearGradient id="paint12_linear_1535_3" x1="547" y1="586.5" x2="683" y2="836.5" gradientUnits="userSpaceOnUse">
<stop offset="0.0706653" stop-color="#E8EACE"/>
<stop offset="0.408116" stop-color="#AA6F18"/>
</linearGradient>
<linearGradient id="paint13_linear_1535_3" x1="547" y1="586.5" x2="683" y2="836.5" gradientUnits="userSpaceOnUse">
<stop offset="0.0706653" stop-color="#E8EACE"/>
<stop offset="0.408116" stop-color="#AA6F18"/>
</linearGradient>
<linearGradient id="paint14_linear_1535_3" x1="547" y1="586.5" x2="683" y2="836.5" gradientUnits="userSpaceOnUse">
<stop offset="0.0706653" stop-color="#E8EACE"/>
<stop offset="0.408116" stop-color="#AA6F18"/>
</linearGradient>
<linearGradient id="paint15_linear_1535_3" x1="547" y1="586.5" x2="683" y2="836.5" gradientUnits="userSpaceOnUse">
<stop offset="0.0706653" stop-color="#E8EACE"/>
<stop offset="0.408116" stop-color="#AA6F18"/>
</linearGradient>
<linearGradient id="paint16_linear_1535_3" x1="547" y1="586.5" x2="683" y2="836.5" gradientUnits="userSpaceOnUse">
<stop offset="0.0706653" stop-color="#E8EACE"/>
<stop offset="0.408116" stop-color="#AA6F18"/>
</linearGradient>
<radialGradient id="paint17_radial_1535_3" cx="0" cy="0" r="1" gradientUnits="userSpaceOnUse" gradientTransform="translate(517 948.5) rotate(145.604) scale(78.7734 105.52)">
<stop offset="0.986565" stop-color="#C28732"/>
<stop offset="1" stop-color="#7B3A17"/>
</radialGradient>
<radialGradient id="paint18_radial_1535_3" cx="0" cy="0" r="1" gradientUnits="userSpaceOnUse" gradientTransform="translate(425.5 1025.5) rotate(86.7481) scale(44.071 105.015)">
<stop offset="0.955" stop-color="#CA913C"/>
<stop offset="1" stop-color="#793F0E"/>
</radialGradient>
<radialGradient id="paint19_radial_1535_3" cx="0" cy="0" r="1" gradientUnits="userSpaceOnUse" gradientTransform="translate(425 912.5) rotate(135) scale(73.5391 102.147)">
<stop offset="0.98" stop-color="#E0AC57"/>
<stop offset="1" stop-color="#8D5812"/>
</radialGradient>
<radialGradient id="paint20_radial_1535_3" cx="0" cy="0" r="1" gradientUnits="userSpaceOnUse" gradientTransform="translate(325.5 952.5) rotate(93.3949) scale(59.1037 114.396)">
<stop offset="0.945" stop-color="#CB923C"/>
<stop offset="1" stop-color="#79400E"/>
</radialGradient>
<radialGradient id="paint21_radial_1535_3" cx="0" cy="0" r="1" gradientUnits="userSpaceOnUse" gradientTransform="translate(287 832.5) rotate(75.1546) scale(85.8662 34.4101)">
<stop offset="0.97" stop-color="#E4B55C"/>
<stop offset="1" stop-color="#946410"/>
</radialGradient>
<radialGradient id="paint22_radial_1535_3" cx="0" cy="0" r="1" gradientUnits="userSpaceOnUse" gradientTransform="translate(241 876) rotate(105.11) scale(51.7904 100.389)">
<stop offset="0.975" stop-color="#D3A14C"/>
<stop offset="1" stop-color="#884718"/>
</radialGradient>
<radialGradient id="paint23_radial_1535_3" cx="0" cy="0" r="1" gradientUnits="userSpaceOnUse" gradientTransform="translate(133 709.5) rotate(108.232) scale(44.7465 77.7935)">
<stop offset="0.98" stop-color="#E6B965"/>
<stop offset="1" stop-color="#EDCB84"/>
</radialGradient>
<radialGradient id="paint24_radial_1535_3" cx="0" cy="0" r="1" gradientUnits="userSpaceOnUse" gradientTransform="translate(126 630) rotate(118.072) scale(51 72.5333)">
<stop offset="0.965" stop-color="#ECC275"/>
<stop offset="1" stop-color="#996A1F"/>
</radialGradient>
<radialGradient id="paint25_radial_1535_3" cx="0" cy="0" r="1" gradientUnits="userSpaceOnUse" gradientTransform="translate(107 535) rotate(155.376) scale(39.6011 68.2019)">
<stop offset="0.97" stop-color="#F0D185"/>
<stop offset="1" stop-color="#996424"/>
</radialGradient>
<radialGradient id="paint26_radial_1535_3" cx="0" cy="0" r="1" gradientUnits="userSpaceOnUse" gradientTransform="translate(162.5 432) rotate(142.98) scale(76.4003 99.8159)">
<stop offset="0.955" stop-color="#F3D188"/>
<stop offset="1" stop-color="#9E7030"/>
</radialGradient>
<radialGradient id="paint27_radial_1535_3" cx="0" cy="0" r="1" gradientUnits="userSpaceOnUse" gradientTransform="translate(693.188 948) rotate(34.3961) scale(78.7734 105.52)">
<stop offset="0.986565" stop-color="#C28732"/>
<stop offset="1" stop-color="#7B3A17"/>
</radialGradient>
<radialGradient id="paint28_radial_1535_3" cx="0" cy="0" r="1" gradientUnits="userSpaceOnUse" gradientTransform="translate(784.688 1025) rotate(93.2519) scale(44.071 105.015)">
<stop offset="0.955" stop-color="#CA913C"/>
<stop offset="1" stop-color="#793F0E"/>
</radialGradient>
<radialGradient id="paint29_radial_1535_3" cx="0" cy="0" r="1" gradientUnits="userSpaceOnUse" gradientTransform="translate(785.188 912) rotate(45) scale(73.5391 102.147)">
<stop offset="0.98" stop-color="#E0AC57"/>
<stop offset="1" stop-color="#8D5812"/>
</radialGradient>
<radialGradient id="paint30_radial_1535_3" cx="0" cy="0" r="1" gradientUnits="userSpaceOnUse" gradientTransform="translate(884.688 952) rotate(86.6051) scale(59.1037 114.396)">
<stop offset="0.945" stop-color="#CB923C"/>
<stop offset="1" stop-color="#79400E"/>
</radialGradient>
<radialGradient id="paint31_radial_1535_3" cx="0" cy="0" r="1" gradientUnits="userSpaceOnUse" gradientTransform="translate(923.187 832) rotate(104.845) scale(85.8662 34.4101)">
<stop offset="0.97" stop-color="#E4B55C"/>
<stop offset="1" stop-color="#946410"/>
</radialGradient>
<radialGradient id="paint32_radial_1535_3" cx="0" cy="0" r="1" gradientUnits="userSpaceOnUse" gradientTransform="translate(969.188 875.5) rotate(74.8904) scale(51.7904 100.389)">
<stop offset="0.975" stop-color="#D3A14C"/>
<stop offset="1" stop-color="#884718"/>
</radialGradient>
<radialGradient id="paint33_radial_1535_3" cx="0" cy="0" r="1" gradientUnits="userSpaceOnUse" gradientTransform="translate(1077.19 709) rotate(71.7675) scale(44.7465 77.7935)">
<stop offset="0.98" stop-color="#E6B965"/>
<stop offset="1" stop-color="#EDCB84"/>
</radialGradient>
<radialGradient id="paint34_radial_1535_3" cx="0" cy="0" r="1" gradientUnits="userSpaceOnUse" gradientTransform="translate(1084.19 629.5) rotate(61.9275) scale(51 72.5333)">
<stop offset="0.965" stop-color="#ECC275"/>
<stop offset="1" stop-color="#996A1F"/>
</radialGradient>
<radialGradient id="paint35_radial_1535_3" cx="0" cy="0" r="1" gradientUnits="userSpaceOnUse" gradientTransform="translate(1103.19 534.5) rotate(24.6236) scale(39.6011 68.2019)">
<stop offset="0.97" stop-color="#F0D185"/>
<stop offset="1" stop-color="#996424"/>
</radialGradient>
<radialGradient id="paint36_radial_1535_3" cx="0" cy="0" r="1" gradientUnits="userSpaceOnUse" gradientTransform="translate(1047.69 431.5) rotate(37.0199) scale(76.4003 99.8159)">
<stop offset="0.955" stop-color="#F3D188"/>
<stop offset="1" stop-color="#9E7030"/>
</radialGradient>
</defs>
</svg>
