<?xml version="1.0" standalone="no"?>
<!DOCTYPE svg PUBLIC "-//W3C//DTD SVG 20010904//EN"
 "http://www.w3.org/TR/2001/REC-SVG-20010904/DTD/svg10.dtd">
<svg version="1.0" xmlns="http://www.w3.org/2000/svg"
 width="300.000000pt" height="82.000000pt" viewBox="0 0 300.000000 82.000000"
 preserveAspectRatio="xMidYMid meet">
<g transform="translate(0.000000,82.000000) scale(0.100000,-0.100000)"
fill="#BE8523" stroke="none">
<path d="M2406 704 c-3 -9 -6 -32 -7 -52 0 -20 -6 -57 -12 -82 -9 -34 -17 -45
-32 -45 -55 0 -96 -64 -72 -114 27 -57 78 -30 103 56 19 65 34 69 34 9 0 -58
8 -76 32 -76 18 0 20 4 14 33 -18 81 -26 165 -20 203 3 23 3 51 -1 63 -8 25
-30 28 -39 5z"/>
<path d="M1555 580 c-44 -9 -73 -27 -80 -50 -3 -11 -13 -20 -21 -20 -23 0 -27
-24 -14 -85 9 -44 15 -55 28 -53 13 2 19 18 23 62 8 71 34 93 117 95 32 1 33
0 18 -21 -19 -27 -12 -83 13 -111 12 -15 24 -17 55 -13 82 14 104 46 31 46
-25 0 -51 5 -58 12 -19 17 -9 78 12 78 9 0 22 5 29 12 19 19 15 -32 -5 -54
-22 -24 -9 -35 23 -18 37 21 47 45 32 78 -16 33 -70 43 -98 17 -16 -15 -18
-14 -22 3 -6 22 -40 31 -83 22z"/>
<path d="M404 546 c-3 -8 4 -35 16 -59 21 -43 24 -97 5 -99 -5 0 -22 19 -36
43 -34 60 -59 64 -59 10 0 -31 4 -41 20 -46 11 -3 27 -19 36 -35 10 -15 28
-33 41 -39 22 -10 25 -8 44 35 24 52 21 84 -14 153 -24 48 -43 62 -53 37z"/>
<path d="M1838 535 c-47 -32 -60 -78 -30 -107 18 -18 24 -19 53 -9 18 6 34 10
35 8 8 -7 16 -168 10 -191 -11 -43 -46 -53 -94 -26 -22 12 -44 32 -50 44 -8
19 -5 24 20 39 31 18 30 37 -3 37 -92 0 -72 -122 28 -178 39 -21 44 -22 76 -8
54 22 63 67 57 285 -2 83 -5 97 -24 112 -28 24 -35 23 -78 -6z m46 -31 c9 -3
16 -15 16 -26 0 -14 -5 -18 -16 -14 -9 4 -13 2 -8 -5 4 -7 -1 -10 -12 -7 -23
4 -31 37 -12 49 16 11 13 10 32 3z"/>
<path d="M235 540 c-12 -19 6 -74 52 -157 53 -100 63 -105 78 -35 6 29 4 33
-11 30 -13 -2 -25 12 -46 52 -15 30 -28 64 -28 76 0 33 -31 56 -45 34z"/>
<path d="M2208 519 c-16 -11 -28 -29 -28 -38 0 -25 -8 -30 -38 -22 -14 4 -33
20 -42 36 -28 50 -100 38 -114 -20 -14 -54 49 -100 94 -68 17 12 23 12 44 -2
34 -23 63 -11 84 33 11 23 26 38 42 42 28 7 39 38 18 51 -19 13 -30 11 -60
-12z"/>
<path d="M2536 518 c-19 -27 -21 -64 -4 -74 7 -4 28 -11 48 -14 l35 -7 -30
-12 c-25 -10 -31 -10 -41 3 -15 22 -31 20 -44 -4 -14 -27 4 -60 33 -60 106 0
156 88 69 121 -19 7 -23 12 -13 18 19 12 4 51 -19 51 -10 0 -26 -10 -34 -22z"/>
<path d="M1004 493 c-10 -39 -44 -103 -55 -103 -5 0 -9 2 -9 4 0 2 -3 12 -7
22 -5 13 -3 16 10 11 9 -3 19 -2 22 3 9 15 -14 50 -33 50 -10 0 -23 5 -30 12
-18 18 -27 -18 -14 -56 6 -17 13 -45 17 -63 6 -32 30 -61 41 -50 4 3 7 18 7
32 0 24 1 25 17 10 17 -16 19 -15 33 7 8 12 18 33 22 46 3 12 10 22 15 22 4 0
10 -10 14 -22 8 -32 73 -98 97 -98 35 0 35 30 0 57 -17 14 -50 51 -72 84 -44
65 -65 74 -75 32z"/>
<path d="M788 488 c-8 -7 -20 -22 -26 -33 -6 -11 -19 -20 -29 -20 -28 0 -27
-31 2 -70 37 -47 55 -46 55 4 0 40 20 71 45 71 16 0 26 25 19 45 -7 18 -44 20
-66 3z"/>
<path d="M551 452 c-17 -6 -41 -57 -41 -90 0 -50 44 -69 81 -36 17 15 21 15
53 0 42 -20 60 -20 76 -1 17 21 -1 41 -44 49 -36 7 -60 28 -70 63 -6 20 -24
25 -55 15z m34 -62 c4 -6 1 -17 -5 -26 -10 -11 -16 -12 -26 -3 -11 9 -11 15
-3 25 14 17 25 18 34 4z"/>
<path d="M2702 358 c-12 -18 -34 -46 -51 -62 -17 -17 -31 -35 -31 -42 0 -22
20 -26 44 -11 29 20 86 104 86 129 0 29 -27 21 -48 -14z"/>
</g>
</svg>
